<?xml version="1.0" encoding="utf-8"?>
<!-- Generator: Adobe Illustrator 23.1.0, SVG Export Plug-In . SVG Version: 6.00 Build 0)  -->
<svg version="1.1" xmlns="http://www.w3.org/2000/svg" xmlns:xlink="http://www.w3.org/1999/xlink" x="0px" y="0px"
	 viewBox="0 0 500 500" style="enable-background:new 0 0 500 500;" xml:space="preserve">
<style type="text/css">
	.st0{fill:#FFFFFF;}
	.st1{fill:#ECF3FF;}
	.st2{fill:#C8DBFB;}
	.st3{fill:none;stroke:#C8DBFB;stroke-linecap:round;stroke-linejoin:round;}
	.st4{fill:none;stroke:#C8DBFB;stroke-linecap:round;stroke-linejoin:round;stroke-dasharray:3.9929,3.9929;}
	.st5{fill:#5193F4;}
	.st6{fill:none;stroke:#0B43A4;stroke-linecap:round;stroke-linejoin:round;stroke-miterlimit:10;}
	.st7{fill:#00AD9F;}
	.st8{fill:none;stroke:#00AD9F;stroke-linecap:round;stroke-linejoin:round;stroke-miterlimit:10;}
	.st9{fill:#0056EC;}
	.st10{fill:#52D2BC;}
	.st11{opacity:0.2;fill:#5275A0;}
	.st12{fill:#7EE8D4;}
	.st13{fill:#4A49CA;}
	.st14{fill:none;stroke:#0B43A4;stroke-linecap:round;stroke-linejoin:round;stroke-miterlimit:10;stroke-dasharray:4;}
	.st15{fill:none;stroke:#C8DBFB;stroke-linecap:round;stroke-linejoin:round;stroke-miterlimit:10;stroke-dasharray:4;}
	.st16{fill:#0B43A4;}
	.st17{fill:#0C2340;}
	.st18{fill:#EF832B;}
	.st19{fill:#FFB9A3;}
	.st20{fill:#047F76;}
	.st21{fill:#009790;}
	.st22{fill:#D8742A;}
</style>
<g id="BACKGROUND">
	<rect class="st0" width="500" height="500"/>
	<g>
		<path class="st1" d="M112.41,94.74c15.62,1.05,22.16-9.61,29.49-23.31c20.09-37.5,64.84-33.89,79.85-10.8
			c10.63,16.36,33.56,12.99,52.1,6.59c18.25-6.3,49.35-12.35,74.13-4.82c21.64,6.58,30.51,30.3,50.24,28.84
			c43.03-3.18,64.72,39.29,56.92,57.82c-5.09,12.09-7.61,25.62-3.48,38.06c4.55,13.7,14.96,24.55,23.37,36.33
			c8.41,11.78,15.18,26.51,11,40.33c-3.58,11.83-14.25,20.01-20.87,30.46c-20.57,32.47-0.22,82.24-27.63,109.31
			c-19.62,19.37-51.6,14.9-79.05,18.6c-22.89,3.08-44.43,12.7-67.22,16.46c-46.15,7.63-92.75-9.17-139.53-9.65
			c-16.48-0.17-33.27,1.67-49.23-2.39c-21.3-5.42-39.42-21.81-46.81-42.32c-10.2-28.3-0.54-61.06-12.05-88.86
			c-9.38-22.65-32.33-41.08-30.88-65.52c0.9-15.22,11.29-27.94,18.44-41.44C41.83,168.37,27.76,89.07,112.41,94.74z M248.59,58
			c-4.11,0-7.43,2.55-7.43,5.69c0,3.15,3.34,5.42,7.43,5.69c13.35,0.88,13.35-4.51,13.35-7.66C261.94,56.7,252.7,58,248.59,58z
			 M384.17,82.28c3.57,2.95,8.12,4.71,12.76,4.95c1.24,0.06,2.59-0.02,3.54-0.8c1.18-0.97,1.31-2.96,0.26-4.07
			c-0.66-0.7-1.62-1.01-2.52-1.38c-1.53-0.62-3.02-1.51-3.89-2.9c-0.25-0.4-0.47-0.87-0.88-1.1
			C390.86,75.53,379.47,78.4,384.17,82.28z M406.91,87.31c1.18,0.41,2.46,0.03,3.65-0.35c0.76-0.25,1.69-0.79,1.49-1.55
			c-0.1-0.37-0.44-0.61-0.78-0.79c-1.56-0.83-3.58-1.45-5.14-0.38C404.55,85.3,405.73,86.91,406.91,87.31z M461.2,194.58
			c0.2,1.77,1.3,3.3,2.35,4.74c2.04,2.78,4.11,5.6,6.8,7.77c1.14,0.92,2.46,1.74,3.93,1.79c1.34,0.05,2.62-0.56,3.7-1.34
			c2.64-1.89,4.42-4.92,4.79-8.13c0.5-4.4-1.55-8.69-3.93-12.44c-1.48-2.32-3.2-4.64-5.66-5.88c-4.14-2.09-6.87-0.27-8.03,3.4
			C464.09,187.87,460.77,190.82,461.2,194.58z M20.82,297.08c-2.18,1.92-0.21,7.54,0.43,11.25c0.19,1.11,0.45,2.26,1.15,3.15
			c0.96,1.21,2.56,1.71,4.05,2.15c2.65,0.77,5.87,1.42,7.9-0.44c1.5-1.38,1.72-3.64,1.71-5.67c0-1.86-0.1-3.71-0.3-5.56
			c-0.09-0.89-0.22-1.8-0.7-2.56c-0.61-0.97-1.69-1.53-2.74-1.98C28.52,295.82,23,295.16,20.82,297.08z M154.04,437.85
			c-1.29,0.26-2.83,0.82-3.02,2.11c-0.15,1.07,0.74,1.98,1.61,2.62c7.11,5.31,16.69,5.65,25.59,5.77c1.04,0.01,2.12,0.02,3.07-0.38
			c1.9-0.8,2.82-3.31,1.93-5.16c-0.32-0.68-0.83-1.25-1.37-1.77C174.7,434.07,162.94,436.06,154.04,437.85z M331.7,434.26
			c-8.03,5.87,0.09,11.12,10.23,7.23c5.46-2.1,10.7-4.17,16.3-5.57c1.81-0.45,12.74-2.82,12.74-5.27c0-6.51-12.31-4.97-20.06-3.89
			C344.66,427.63,338.32,429.41,331.7,434.26z"/>
	</g>
</g>
<g id="OBJECTS">
	<g>
		<ellipse class="st2" cx="180.81" cy="413.68" rx="38.65" ry="3.61"/>
		<ellipse class="st2" cx="379.36" cy="413.68" rx="38.65" ry="3.61"/>
		<g>
			<g>
				<g>
					<path class="st3" d="M461.01,159.46c-0.11-0.67-0.23-1.33-0.36-1.97"/>
					<path class="st4" d="M459.7,153.61c-6.89-23.48-28.88-21.21-48.75-21.17c-21.39,0.04-352.51,0.73-352.51,0.73
						c-33.28,0.07-30.05,48.11-4,48.05c14.98-0.03,20.68,28.1-5.22,28.15c-15.54,0.03-16.04,19.73-5.59,23.68"/>
					<path class="st3" d="M45.55,233.57c0.63,0.11,1.3,0.17,2,0.16"/>
				</g>
			</g>
			<path class="st5" d="M51.63,232.82c0.44,2.61-1.31,5.08-3.92,5.53c-2.61,0.44-5.08-1.31-5.53-3.92
				c-0.44-2.61,1.31-5.08,3.92-5.53C48.72,228.46,51.19,230.21,51.63,232.82z"/>
			<path class="st5" d="M465.73,161.61c-0.47,2.6-2.97,4.33-5.57,3.85c-2.6-0.47-4.33-2.97-3.85-5.57c0.47-2.6,2.97-4.33,5.57-3.85
				C464.47,156.52,466.2,159.01,465.73,161.61z"/>
		</g>
		<g>
			<g>
				<path class="st5" d="M100.45,197.84c-0.69,3.89-1.7,7.69-2.93,11.44c-2.65,8.09-6.31,15.88-10.01,23.57
					c-1.93,4.02-9.76,13.32-13.96,15.09c0.49-10.49,0.53-22.74-0.69-33.33c-1.17-10.2,2.5-17.93-1.5-27.39
					c-0.51-1.21-1.04-2.42-1.57-3.63c-1.99-4.5-3.96-9.02-4.58-13.87c-0.8-6.15,1.11-13.16,6.43-16.36
					c3.83-2.3,8.82-2.18,12.91-0.37c4.09,1.81,7.37,5.12,9.86,8.83C101.38,172.18,102.64,185.56,100.45,197.84z"/>
				<path class="st6" d="M81.85,163.87c7.83,11.06,8.51,23.94,9.19,37.47c0.68,13.53-2.57,27.24-9.26,39.02"/>
			</g>
			<g>
				<path class="st7" d="M81.52,367.85c-5.49-4.85-11.04-9.77-15.1-15.87c-3.53-5.31-5.81-11.34-8.89-16.93
					c-1.99-3.61-4.35-7.1-5.5-11.06c-1.15-3.96-0.88-8.66,1.94-11.67c2.94-3.15,7.99-3.63,11.98-2.01c3.99,1.62,7.04,4.98,9.36,8.6
					c3.09,4.81,5.16,10.28,6.02,15.93c0.78,5.12,0.58,10.36,1.38,15.48c0.74,4.77,2.35,9.35,4.37,13.72
					c1.83,3.96,6.48,11.03,7.66,15.09C91.45,380.76,83.86,369.91,81.52,367.85z"/>
				<path class="st8" d="M62.33,317.55c5.22,2.28,7.29,8.51,8.38,14.1c1.24,6.36,0.96,13.25,3.88,19.04
					c5.5,10.91,12.65,23.32,17.97,27.03"/>
			</g>
			<g>
				<path class="st9" d="M54.51,352.93c-4.55-1.8-10.64-2.54-13.56,1.39c-2.44,3.29-1.18,7.96,0.51,11.69
					c1.43,3.15,3.24,6.36,6.24,8.07c2.05,1.17,4.46,1.52,6.81,1.8c6.55,0.78,13.14,1.16,19.74,1.14c7.64-0.02,16.9,3.1,23.23,7.87
					C89.37,369.81,69.84,358.98,54.51,352.93z"/>
				<path class="st6" d="M46.52,362.73c5.8,0.25,11.65,0.65,17.21,2.3c5.69,1.68,27.58,11.73,31,16"/>
			</g>
			<g>
				<path class="st10" d="M104.19,321.97c-5.93-9.28-16.07-15.76-26.98-17.23c-8.06-1.08-16.35,0.42-24.31-1.25
					c-8.36-1.75-15.9-7.14-20.26-14.49c-4.36-7.35-5.5-16.53-3.05-24.72c1.87-6.22,6.14-12.12,12.32-14.11
					c3.37-1.08,7.05-0.93,10.49-0.11c3.18,0.76,6.13,2.09,8.85,3.82c6.22,3.94,11.25,10,15.03,16.44
					c3.43,5.85,11.89,14.96,17.65,20.89c3.38,3.46,5.83,5.83,5.83,5.83C103.7,301.95,101.85,316.12,104.19,321.97z"/>
				<path class="st8" d="M40.11,268.16c19.37,8.74,40.49,20.2,54.23,36.42"/>
			</g>
			<g>
				<path class="st11" d="M96.19,302.4c0,0-28.86-23.4-34.95-48.51c6.22,3.94,11.25,10,15.03,16.44
					c3.43,5.85,11.89,14.96,17.65,20.89C94.6,294.36,95.35,298.04,96.19,302.4z"/>
				<path class="st11" d="M97.52,209.28c-2.65,8.09-6.31,15.88-10.01,23.57c-1.93,4.02-9.76,13.32-13.96,15.09
					c0.49-10.49,0.53-22.74-0.69-33.33c-1.17-10.2,2.5-17.93-1.5-27.39c-0.51-1.21-1.04-2.42-1.57-3.63
					c0.37,0.12,0.73,0.25,1.08,0.4c6.58,2.82,9.62,9.78,10.18,16.54c0.47,5.58-0.54,11.17-1.29,16.72
					c-0.35,2.56-0.63,5.18-0.08,7.69c0.01,0.03,0.02,0.05,0.02,0.08c0.69,2.99,5.06,2.82,5.62-0.21l1.75-9.29
					c0.52-2.78,1.09-5.69,3.37-7.63c0.9-0.77,2.06-1.25,3.24-1.21C95.56,206.75,96.74,207.85,97.52,209.28z"/>
				<path class="st12" d="M96.2,296.53c-4.56-23.81-6.96-27.48-4.95-33.45c2.56-7.61,1.12-15.25,3.53-22.91
					c2.41-7.65,4.05-15.88,2.11-23.67c-0.61-2.46-1.86-5.14-4.82-5.25c-1.19-0.04-2.34,0.44-3.24,1.21
					c-2.28,1.94-2.85,4.85-3.37,7.63l-1.74,9.29c-0.57,3.02-4.93,3.2-5.62,0.2c-0.01-0.03-0.01-0.05-0.02-0.08
					c-0.56-2.51-0.27-5.13,0.07-7.69c0.75-5.56,1.76-11.14,1.3-16.73c-0.56-6.76-3.6-13.72-10.19-16.53c-2.33-1-4.97-1.22-7.43-0.59
					c-6.87,1.76-8.65,8.48-7.64,14.21c0.71,4.04,2.6,7.75,4.31,11.47c4.18,9.09,1.11,17.43,1.69,27.42
					C61.78,268.65,96.2,296.53,96.2,296.53z"/>
				<path class="st8" d="M65.54,195.19c3.39,16.94,6.82,34,13.4,49.98c1.93,4.68,2.87,10.85,14.04,23.59"/>
			</g>
			<g>
				<path class="st5" d="M197.78,199.53c-3.51-4.01-6.75-8.09-10.16-12.02c-2.21-2.55-4.49-5.04-6.97-7.4
					c-1.23-1.18-2.5-2.32-3.84-3.43c-7.92-6.54-16.76-11.97-26.21-16.01c-5.7-2.44-11.72-4.45-16.56-8.34
					c-4.84-3.88-8.32-10.26-6.71-16.25c1.17-4.32,4.84-7.68,9.05-9.22c4.2-1.53,8.86-1.41,13.23-0.47
					c12.2,2.63,22.39,11.4,29.32,21.77c0.12,0.18,0.25,0.37,0.37,0.56c5.08,7.75,8.63,16.37,11.72,25.15
					c0.99,2.82,1.93,5.66,2.86,8.49C195.28,186.59,199.58,195.34,197.78,199.53z"/>
				<path class="st6" d="M141.97,136.57c13.31,2.54,22.73,11.35,32.6,20.63s17.03,21.41,20.38,34.54"/>
			</g>
			<g>
				<path class="st11" d="M187.62,187.51c-0.11,1.38-0.07,2.76,0.19,4.16c-3.33-0.76-5.64-5.93-7.16-11.56
					c-1.49-5.47-2.23-11.39-2.46-14.12c-0.45-5.76-0.08-11.6,1.11-17.27c5.08,7.75,8.63,16.37,11.72,25.15
					c-1.06,3.15-1.97,6.34-2.72,9.56C187.98,184.8,187.73,186.15,187.62,187.51z"/>
				<path class="st10" d="M210.72,139.46c-1.13,4.99-4.14,9.3-6.8,13.68c-1.4,2.3-2.71,4.67-3.93,7.07
					c-3.91,7.68-6.89,15.83-8.86,24.22c-0.65,2.75-1.01,5.45-0.49,8.24c-6.56-1.5-9.18-20.15-9.62-25.69
					c-0.79-9.98,0.91-20.21,5.02-29.35c1.79-4.01,4.11-7.95,7.68-10.52c3.56-2.57,8.6-3.47,12.37-1.23
					c2.27,1.35,3.73,3.59,4.44,6.14C211.23,134.39,211.26,137.05,210.72,139.46z"/>
				<path class="st8" d="M188.13,187.17c-4.08-10.25-1.6-31.94,4.94-45.57c1.97-4.11,4.78-7.96,8.71-10.25"/>
			</g>
			<g>
				<path class="st11" d="M210.72,139.46c-1.13,4.99-4.14,9.3-6.8,13.68c-1.4,2.3-2.71,4.67-3.93,7.07
					c-1.79-3.02-3.02-6.35-3.36-9.83c-0.55-5.81,1.67-12.03,6.39-15.45c2.21-1.59,4.8-2.5,7.51-2.91
					C211.23,134.39,211.26,137.05,210.72,139.46z"/>
				<path class="st7" d="M248.57,182.86c-0.31,1.91-0.88,3.75-1.7,5.52c-2.91,6.3-9.02,11.7-18.17,16.1c0,0-0.51-9.96-0.62-12.63
					c-0.45-11.42-12.84-17.73-20.68-26.06c-3.99-4.25-7.02-9.61-7.58-15.42c-0.55-5.81,1.67-12.03,6.39-15.45
					c3.96-2.86,9.14-3.48,14.02-3.11c7.86,0.63,15.79,3.92,20.68,10.06c0.21,0.23,0.39,0.48,0.57,0.72
					c2.99,4.09,4.53,9.07,5.66,14.03C249.1,165.21,249.98,174.15,248.57,182.86z"/>
				<path class="st8" d="M209.58,141.05c8.58,4.44,17.17,9.8,22.16,18.06c6.97,11.53,5.45,26.53,0.08,38.88"/>
			</g>
			<g>
				<path class="st10" d="M392.06,256.51c5.47-9,2.67-20.58,4.58-30.93c1.46-7.96,5.89-15.34,12.23-20.38
					c3.98-3.16,9.57-5.42,14.06-3.05c0.97,0.51,2.13,1.24,3.07,0.66c0.56-0.34,0.78-1.04,0.92-1.68c1.14-5.59-1.55-11.7,0.65-16.97
					c1.18-2.84,3.63-4.96,6.22-6.61c5-3.19,10.85-5.02,16.77-5.26c1.57-0.06,3.21,0,4.62,0.7c2.54,1.27,3.7,4.44,3.36,7.26
					c-0.34,2.82-1.9,5.35-3.62,7.61c-5.74,7.51-14.15,13.99-15.26,23.37c-0.14,1.18-0.14,2.44,0.4,3.5
					c0.53,1.03,1.51,1.76,2.06,2.77c1.77,3.25-1.65,6.94-4.98,8.53c-3.05,1.46-6.35,2.37-9.72,2.69c-2.32,0.22-4.93,0.27-6.51,1.98
					c-2.91,3.16,0.43,8.21-0.18,12.46c-0.38,2.65-2.3,4.79-4.24,6.65c-3.59,3.45-7.51,6.54-11.7,9.23c-3.4,2.18-6.99,4.1-10,6.78
					c-3.01,2.68-5.44,6.31-5.64,10.34"/>
				<path class="st8" d="M399.27,247.76c0.89-4.36,2.92-8.4,4.93-12.37c3.14-6.21,6.34-12.51,11.08-17.6
					c3.6-3.87,7.99-6.93,11.65-10.74c2.61-2.72,4.83-5.8,6.58-9.14c0.95-1.81,1.77-3.71,3.04-5.3c1.52-1.89,3.59-3.24,5.4-4.86
					c2.44-2.18,4.4-4.89,5.72-7.89"/>
			</g>
			<g>
				<path class="st5" d="M470.57,262.76c-1.23,4.74-3.06,9.43-6.2,13.19c-2.17,2.59-4.87,4.64-7.82,6.31
					c-1.52,0.87-3.12,1.63-4.73,2.31c-6.26,2.63-12.99,4.12-19.77,4.38c-9.88,0.37-20.04-1.81-29.52,1.01
					c-4.35,1.29-8.36,3.64-11.65,6.75c-2.06,1.93-3.83,4.16-5.23,6.61l1.29-8.2c2.39-8.82,4.83-17.8,9.71-25.53
					c3.15-5.01,7.24-9.37,11.59-13.38c6.95-6.42,14.66-12.07,23.17-16.2c6.88-3.34,14.52-5.69,22.12-4.76
					c7.59,0.92,15.05,5.72,17.42,12.99C472.47,252.91,471.81,258.01,470.57,262.76z"/>
				<path class="st6" d="M393.4,288.88c7.26-10.74,18.13-19,30.43-23.1c7.66-2.56,15.77-3.53,23.53-5.77
					c7.76-2.24,15.51-6.04,20.06-12.72"/>
			</g>
			<g>
				<path class="st10" d="M398.18,367.65c0.43-11.03,6.13-21.21,13.06-29.81c5.77-7.17,12.74-13.73,21.35-17
					c2.7-1.02,5.66-1.71,8.46-1.02c2.8,0.69,5.34,3.08,5.39,5.97c0.04,2.43-1.59,4.56-3.31,6.28c-5.66,5.67-12.97,9.3-19.83,13.45
					c-11.78,7.12-22.98,16.62-27.65,29.57"/>
				<path class="st8" d="M402.54,358c7.2-16.06,25.84-30.42,38.13-32.21"/>
			</g>
			<g>
				<path class="st7" d="M393.68,376.42c-0.1-1.85,5.93-6.68,7.29-7.91c7.53-6.83,16.47-11.85,25.92-14.81
					c3.82-1.2,7.89-2.07,11.71-1.15c3.83,0.92,7.33,4.06,7.71,8.18c0.36,4-2.32,7.92-5.75,9.85c-3.43,1.94-7.43,2.23-11.25,2.01
					c-5.9-0.34-11.7-1.81-17.62-1.77S397.45,371.47,393.68,376.42z"/>
				<path class="st8" d="M399.82,370.81c12.11-6.56,30.42-10.83,43.72-9.22"/>
			</g>
			<g>
				<path class="st11" d="M248.57,182.86c-0.31,1.91-0.88,3.75-1.7,5.52c-4.25-9.01-7.99-20.77-8.89-35.21
					c-0.24-3.91,0.85-7.93,2.93-11.3c0.21,0.23,0.39,0.48,0.57,0.72c2.99,4.09,4.53,9.07,5.66,14.03
					C249.1,165.21,249.98,174.15,248.57,182.86z"/>
				<path class="st12" d="M290.46,182.36c9.04-3.21,18.44-5.77,26.66-10.73c2.49-1.5,4.88-3.24,6.65-5.54
					c1.76-2.3,2.85-5.24,2.46-8.12c-0.4-2.92-2.27-5.72-1.64-8.61c0.42-1.9,1.84-3.38,2.93-5c2.59-3.83,3.36-8.84,2.05-13.28
					c-1.42-4.76-4.99-8.58-7.02-13.11c-1.66-3.71-2.25-7.88-1.69-11.9c-7.59,0.1-14.51,4.25-21.97,5.63
					c-5.71,1.06-11.64,0.48-17.3,1.78c-10.31,2.37-18.75,11.45-20.35,21.91c-4.78-0.82-9.93,0.9-13.26,4.44
					c-3.53,3.76-5.52,9.11-5.2,14.26c2.33,37.43,23.76,56.95,23.76,56.95S287.01,183.58,290.46,182.36z"/>
				<g>
					<path class="st8" d="M270.23,182.1c-0.94-9.23,2.29-18.36,5.99-26.87c3.61-8.29,7.77-16.42,13.35-23.54
						c5.58-7.12,12.67-13.22,21.04-16.66"/>
					<path class="st8" d="M278.28,120.69c-0.95,8.23-0.28,18.15,1.86,26.15"/>
					<path class="st8" d="M281.68,143.9c9.4-6.03,23.86-9.69,35.01-9.05"/>
					<path class="st8" d="M258.69,145.44c11.32,4.77,11.78,21.41,12.09,26.14"/>
					<path class="st8" d="M273.86,161c8.66-6.21,21.17-8.08,30.38-5.76"/>
					<path class="st8" d="M297.48,116.42c-2.6,3.21-3.25,7.03-2.99,9.68"/>
					<path class="st8" d="M296.96,123.75c3.99-2.04,9.33-2.51,15.04-1.08"/>
				</g>
			</g>
			<g>
				<path class="st13" d="M74.3,141.85c1.06-0.06,8.32-5.43,11.11-7.24c0.79-0.51,1.58-1.04,2.13-1.8c0.55-0.76,0.81-1.8,0.41-2.65
					c-0.5-1.05-1.32-2.1-3.39-2.1c-3.61,0.01-4.87,1.2-6.63,3.01C72.11,137.09,74.3,141.85,74.3,141.85z"/>
				<path class="st13" d="M106.82,163.52c3.16,1.42,6.53,2.83,9.97,2.39c1.33-0.17,2.79-0.78,3.23-2.04c0.38-1.08-0.14-2.33-1-3.09
					c-0.86-0.76-1.99-1.13-3.11-1.4c-4.2-1.03-10.11-0.46-14.27,0.72C101.64,160.11,104.94,162.68,106.82,163.52z"/>
				<path class="st13" d="M127.62,116.87c-1.41-0.89-2.97-2.08-2.96-3.75c0-1.67,1.74-2.94,3.41-2.95c1.67-0.01,3.22,0.9,4.48,2.01
					c5.31,4.67,4.65,9.99,4.65,9.99S129.19,117.86,127.62,116.87z"/>
				<path class="st13" d="M131.81,102.64c-1.24-0.53-2.51-1.17-3.24-2.31c-0.35-0.55-0.55-1.25-0.34-1.87
					c0.36-1.03,1.01-1.96,3.62-1.49c8.25,1.5,10.05,7.15,10.05,7.15S134,103.58,131.81,102.64z"/>
				<path class="st13" d="M155.99,115.14c3.31-0.29,6.73-1.93,8.81-4.52c0.79-0.98,1.51-2.05,1.77-3.28
					c0.26-1.23-0.02-2.63-0.97-3.45c-1.16-1-3-0.84-4.27,0c-1.28,0.84-2.1,2.22-2.76,3.59
					C157.68,109.32,155.99,115.14,155.99,115.14z"/>
				<path class="st6" d="M96.9,235.8c-8.01-7.06-16.03-14.13-24.04-21.19c-4.27-3.76-8.63-7.64-11.33-12.65
					c-5.81-10.77-2.46-24.76,5.39-34.15c7.85-9.39,19.35-14.93,30.91-18.96c11.55-4.03,23.58-6.86,34.59-12.2
					c6.91-3.35,13.85-8.33,15.75-15.77c1.14-4.47,0.18-9.44-2.54-13.16c-2.72-3.73-7.16-6.15-11.77-6.42"/>
				<path class="st6" d="M161.58,107.45c-2.19,6.72-10.72,10.81-14.61,16.64"/>
				<path class="st6" d="M130.96,115.19c1.68,1.77,3.69,3.24,5.16,5.19c3.1,4.13,3.35,10.84-1.23,15"/>
				<path class="st6" d="M87.82,152.82c7.07,5.45,16.36,9.08,25.28,9.42"/>
				<path class="st6" d="M71.63,162.75c-3.26-9.6,0.29-21.1,8.39-27.19"/>
			</g>
			<g>
				<path class="st13" d="M330.05,122.19c-0.38-1.19-0.36-2.65,0.51-3.54c0.7-0.7,1.86-1.02,2.77-0.62
					c7.03,3.09,6.27,14.06,6.27,14.06S332.93,131.13,330.05,122.19z"/>
				<path class="st13" d="M329.88,142.73c-4.55,8.22,11.61,7.59,17.44,2.75C347.32,145.48,333.79,135.66,329.88,142.73z"/>
				<path class="st13" d="M350.31,122.81c-1.1-1.5-1.49-3.74-0.29-5.17c0.89-1.06,2.44-1.39,3.8-1.13c1.36,0.26,3.4,1.52,4.27,2.6
					c5.32,6.62,2.82,13.09,2.82,13.09S352.11,125.28,350.31,122.81z"/>
				<path class="st13" d="M414.5,143.16c-0.39-1.28-0.3-2.84,0.69-3.74c0.63-0.57,1.52-0.77,2.36-0.71
					c0.84,0.06,1.65,0.37,2.42,0.72c1.65,0.75,2.93,2.07,3.72,3.7c2,4.12,0.64,9.21,0.64,9.21S415.47,146.35,414.5,143.16z"/>
				<path class="st13" d="M394.31,158.24c-2.86-2.51-7.23-3.25-10.72-1.72c-0.89,0.39-1.73,0.94-2.29,1.72
					c-1.28,1.77-0.83,4.35,0.5,6.08c1.32,1.73,3.33,2.78,5.32,3.68c3.6,1.63,9.18,1.96,13.01,2.94
					C400.12,170.93,400.1,163.33,394.31,158.24z"/>
				<path class="st6" d="M335.08,123.95c2.38,7.78,9.11,13.66,16.6,16.83c7.49,3.18,15.74,4.02,23.87,4.54
					c8.12,0.53,16.34,0.79,24.19,2.92c7.65,2.08,15.28,6.4,18.56,13.62c4,8.79,0.46,19.29-5.16,27.15
					c-5.61,7.85-13.17,14.18-18.6,22.16c-2.49,3.66-4.58,7.96-4.07,12.36c0.67,5.87,5.62,10.19,10.21,13.91"/>
				<path class="st6" d="M353.8,121.1c5.38,5.95,9.68,15.26,10.73,23.22"/>
				<path class="st6" d="M335.71,144.1c3.08,0.82,6.2,1.64,9.38,1.65c3.18,0.01,6.87-1.76,9.16-3.97"/>
				<path class="st6" d="M419.76,143.65c2.88,2.78,4.64,6.71,4.79,10.71c0.15,4-2.07,8.86-4.74,11.85"/>
				<path class="st6" d="M389.6,161.82c5.76,5.3,10.77,9.59,17.17,14.09c2.92,2.06,8.72,4.69,11.3,4.01"/>
			</g>
			<g>
				<path class="st11" d="M456.55,282.26c-1.52,0.87-3.12,1.63-4.73,2.31c-6.26,2.63-12.99,4.12-19.77,4.38
					c-9.88,0.37-20.04-1.81-29.52,1.01c-4.35,1.29-8.36,3.64-11.65,6.75c-0.33,0.16-0.66,0.34-0.99,0.53
					c-0.79-6.69,15.89-15.41,20.96-17.68c9.15-4.1,19.35-5.92,29.35-5.12c4.38,0.35,8.87,1.21,12.48,3.7
					C454.23,279.21,455.59,280.64,456.55,282.26z"/>
				<path class="st10" d="M440.2,278.44c4.38,0.35,8.87,1.21,12.48,3.7c3.62,2.49,6.16,6.94,5.32,11.25
					c-0.98,5.02-6.17,8.29-11.25,8.9s-10.15-0.78-15.16-1.81c-11.09-2.28-22.53-2.81-33.78-1.54c-2.81,0.31-5.47,0.87-7.92,2.31
					c-0.79-6.69,15.9-15.41,20.97-17.68C420,279.46,430.2,277.64,440.2,278.44z"/>
				<path class="st8" d="M394.23,297.02c8.28-7.28,29.55-12.22,44.59-10.63c4.53,0.48,9.1,1.83,12.58,4.77"/>
			</g>
		</g>
		<path class="st14" d="M378.75,215.22l80.89-0.17c9.49-0.02,17.2,7.66,17.22,17.15v0c0.02,9.49-7.66,17.2-17.15,17.22l-55.33,0.11"
			/>
		<path class="st14" d="M134.01,274.61l-56.57,0.12c-5.36,0.01-9.69,4.36-9.68,9.72l0,0c0.01,5.36,4.36,9.69,9.72,9.68l16.49-0.03"
			/>
		<g>
			<path class="st15" d="M43.72,318.42c-19.38,0.04-19.78,28.95,4.87,28.89c24.66-0.05,348.13-0.72,363.38-0.75
				c15.25-0.03,16.86-23.83-1.99-23.79c-37.53,0.08-38.77-17.82-17.94-17.86"/>
			<path class="st5" d="M48.26,317.61c0.44,2.61-1.31,5.08-3.92,5.53c-2.61,0.44-5.08-1.31-5.53-3.92
				c-0.44-2.61,1.31-5.08,3.92-5.53C45.34,313.25,47.81,315.01,48.26,317.61z"/>
			<path class="st16" d="M401.34,305.04c0.44,2.61-1.31,5.08-3.92,5.53c-2.61,0.44-5.08-1.31-5.53-3.92
				c-0.44-2.61,1.31-5.08,3.92-5.53C398.42,300.68,400.9,302.43,401.34,305.04z"/>
		</g>
		<g>
			<path class="st11" d="M406.56,388.61l-300.89,0.62c-4.01,0.01-7.28-3.24-7.28-7.25l-0.41-199.33c-0.01-4.01,3.24-7.28,7.25-7.28
				l300.89-0.62c4.01-0.01,7.28,3.24,7.28,7.25l0.41,199.33C413.82,385.34,410.57,388.6,406.56,388.61z"/>
			<g>
				<path class="st0" d="M400.67,384.8l-300.89,0.62c-4.01,0.01-7.28-3.24-7.28-7.25l-0.41-199.33c-0.01-4.01,3.24-7.28,7.25-7.28
					l300.89-0.62c4.01-0.01,7.28,3.24,7.28,7.25l0.41,199.33C407.93,381.53,404.68,384.8,400.67,384.8z"/>
				<path class="st9" d="M399.73,170.94l-299.6,0.62c-4.37,0.01-7.9,3.56-7.9,7.93l0.01,6.88l315.43-0.65l-0.01-6.88
					C407.65,174.46,404.1,170.93,399.73,170.94z"/>
				<path class="st2" d="M100.49,385.42l45.27-0.09l-0.41-199.08l-53.18,0.11l0.39,191.18C92.57,381.9,96.12,385.43,100.49,385.42z"
					/>
				<g>
					<path class="st9" d="M400.31,172.93c2.9,0,5.26,2.36,5.27,5.26l0.41,199.33c0.01,2.91-2.35,5.27-5.26,5.28l-300.9,0.62
						c-2.9,0-5.26-2.36-5.27-5.26l-0.41-199.33c0-1.41,0.54-2.73,1.54-3.73c0.99-1,2.31-1.55,3.72-1.55l300.88-0.62H400.31
						 M400.31,170.93c-0.01,0-0.01,0-0.02,0l-300.89,0.62c-4.01,0.01-7.26,3.27-7.25,7.28l0.41,199.33
						c0.01,4.01,3.26,7.25,7.27,7.25c0,0,0.01,0,0.02,0l300.89-0.62c4.01-0.01,7.26-3.27,7.25-7.28l-0.41-199.33
						C407.57,174.18,404.32,170.93,400.31,170.93L400.31,170.93z"/>
				</g>
				<path class="st0" d="M138.13,370.21l-34.89,0.07c-1.54,0-2.79-1.24-2.79-2.78l0-0.35c0-1.54,1.24-2.79,2.78-2.79l34.89-0.07
					c1.54,0,2.79,1.24,2.79,2.78l0,0.35C140.91,368.95,139.67,370.2,138.13,370.21z"/>
				<path class="st0" d="M133.93,235.15l-29.7,0.06c-2.82,0.01-5.11-2.28-5.12-5.1l-0.06-29.7c-0.01-2.82,2.28-5.11,5.1-5.12
					l29.7-0.06c2.82-0.01,5.11,2.28,5.12,5.1l0.06,29.7C139.03,232.85,136.75,235.14,133.93,235.15z"/>
				<path class="st2" d="M261.08,324.12l-103.48,0.21c-2.01,0-3.64-1.62-3.65-3.63l0-0.45c0-2.01,1.62-3.64,3.63-3.65l103.48-0.21
					c2.01,0,3.64,1.62,3.65,3.63l0,0.45C264.72,322.48,263.09,324.12,261.08,324.12z"/>
				<path class="st2" d="M255.1,206.22l-81.77,0.17c-2.01,0-3.64-1.62-3.65-3.63l0-0.45c0-2.01,1.62-3.64,3.63-3.65l81.77-0.17
					c2.01,0,3.64,1.62,3.65,3.63l0,0.45C258.74,204.58,257.11,206.22,255.1,206.22z"/>
				<path class="st2" d="M384.37,288.92l-109.03,0.23c-2.01,0-3.64-1.62-3.65-3.63l0-0.45c0-2.01,1.62-3.64,3.63-3.65l109.03-0.23
					c2.01,0,3.64,1.62,3.65,3.63l0,0.45C388.01,287.29,386.38,288.92,384.37,288.92z"/>
				<path class="st2" d="M261.11,340.1l-103.48,0.21c-2.01,0-3.64-1.62-3.65-3.63l0-0.45c0-2.01,1.62-3.64,3.63-3.65l103.48-0.21
					c2.01,0,3.64,1.62,3.65,3.63l0,0.45C264.75,338.47,263.12,340.1,261.11,340.1z"/>
				<path class="st2" d="M261.15,356.09l-103.48,0.21c-2.01,0-3.64-1.62-3.65-3.63l0-0.45c0-2.01,1.62-3.64,3.63-3.65l103.48-0.21
					c2.01,0,3.64,1.62,3.65,3.63l0,0.45C264.78,354.45,263.16,356.08,261.15,356.09z"/>
				<path class="st2" d="M382.16,366.51l-104.29,0.22c-3.32,0.01-6.02-2.68-6.02-6l-0.09-44.79c-0.01-3.32,2.68-6.02,6-6.02
					l104.29-0.22c3.32-0.01,6.02,2.68,6.02,6l0.09,44.79C388.16,363.81,385.48,366.5,382.16,366.51z"/>
				<path class="st2" d="M109.54,178.8c0,1.41-1.14,2.55-2.54,2.55s-2.55-1.14-2.55-2.54c0-1.41,1.14-2.55,2.54-2.55
					S109.54,177.39,109.54,178.8z"/>
				<circle class="st2" cx="117.78" cy="178.78" r="2.55"/>
				<path class="st2" d="M131.12,178.76c0,1.41-1.14,2.55-2.54,2.55c-1.41,0-2.55-1.14-2.55-2.54c0-1.41,1.14-2.55,2.54-2.55
					C129.97,176.21,131.12,177.35,131.12,178.76z"/>
				
					<ellipse transform="matrix(0.0997 -0.995 0.995 0.0997 -58.9822 339.9264)" class="st2" cx="158.35" cy="202.56" rx="7.37" ry="7.37"/>
				<path class="st0" d="M136,241.38l-32.65,0.07c-0.76,0-1.37-0.61-1.38-1.37l0-0.17c0-0.76,0.61-1.37,1.37-1.38l32.65-0.07
					c0.76,0,1.37,0.61,1.38,1.37l0,0.17C137.37,240.76,136.76,241.38,136,241.38z"/>
				<path class="st0" d="M136.01,247.61l-32.65,0.07c-0.76,0-1.37-0.61-1.38-1.37l0-0.17c0-0.76,0.61-1.37,1.37-1.38l32.65-0.07
					c0.76,0,1.37,0.61,1.38,1.37l0,0.17C137.39,246.99,136.77,247.61,136.01,247.61z"/>
				<path class="st2" d="M173.4,260.79l-9.23,0.09l0.07,38.68l-7.97,0.02c-2.81,0.01-5.09-2.27-5.1-5.08l-0.15-71.53
					c-0.01-2.84,2.29-5.15,5.13-5.15l17.15-0.04L173.4,260.79z"/>
				<g>
					<path class="st2" d="M233.29,217.66v1c2.76,0,5.01,2.24,5.01,5l0.14,69.74c0.01,2.76-2.24,5.02-5,5.02l-76.27,0.16
						c-2.76,0-5.01-2.24-5.01-5l-0.14-69.74c-0.01-2.76,2.24-5.02,5-5.02l76.26-0.16L233.29,217.66 M233.29,217.66
						c0,0-0.01,0-0.01,0l-76.26,0.16c-3.32,0.01-6.01,2.7-6,6.02l0.14,69.74c0.01,3.32,2.7,6,6.01,6c0,0,0.01,0,0.01,0l76.26-0.16
						c3.32-0.01,6.01-2.7,6-6.02l-0.14-69.74C239.29,220.35,236.6,217.66,233.29,217.66L233.29,217.66z"/>
				</g>
			</g>
			<path class="st2" d="M360.63,275.06l-101.72-22.99c-3.24-0.73-5.27-3.95-4.54-7.19l11.44-50.63c0.73-3.24,3.95-5.27,7.19-4.54
				l101.72,22.99c3.24,0.73,5.27,3.95,4.54,7.19l-11.44,50.63C367.08,273.76,363.87,275.79,360.63,275.06z"/>
			<g>
				<polygon class="st9" points="163.76,412.76 149.53,412.79 146.05,394.66 167.17,394.61 				"/>
				<path class="st2" d="M149.99,394.65c0,1.48-0.28,3.96,0.71,4c0.99,0.04,0.58-2.36,1.7-2.29c0.72,0.04-0.33,7.88,2.38,8.07
					c1.86,0.13,1.52-3.84,1.71-6.33c0.13-1.68,2.28-1.35,2.3-0.24c0.02,1.25-0.06,2.08,0,3.5c0.1,2.37,3.74,1.74,3.61-1.42
					s-0.01-5.3-0.01-5.3L149.99,394.65z"/>
				<g>
					<path class="st17" d="M146.58,405.6c-0.29,0-0.57-0.03-0.84-0.09c-1.05-0.23-1.78-0.78-2.19-1.64
						c-1.45-3.08,2.37-8.84,2.52-9.1l0.2,1.04c-0.03,0.06-3.36,5.01-2.05,7.78c0.31,0.66,0.86,1.07,1.69,1.25
						c0.23,0.05,0.47,0.07,0.71,0.07c5.13-0.01,13.89-9.56,13.99-9.67c0.36-0.43,1.03-0.02,0.79,0.34
						C160.99,396.04,152.09,405.59,146.58,405.6z"/>
				</g>
			</g>
			<g>
				<path class="st11" d="M296.15,157.62c-20.23-0.77-48.08,14.19-38.2,50.77c-0.21,3.09,1.64,5.3,3.61,4.7
					c1.97-0.6,0.23-6.47,0.23-6.47c3.37-27.2,9.67-31.9,20.36-31.8l25.09-0.05c6.2,0.91,17.47,5.25,19.16,27.02l6.25,1.15
					C333.14,187.21,329.33,158.89,296.15,157.62z"/>
				<path class="st18" d="M296.15,154.44c-20.23-0.77-48.08,14.19-38.2,50.77l3.84-1.77c3.37-27.2,9.67-31.9,20.36-31.8l25.09-0.05
					c6.2,0.91,17.77,6.42,19.46,28.19l5.95-0.01C333.14,184.03,329.33,155.71,296.15,154.44z"/>
				<path class="st19" d="M292.01,155.03l-3,6.6c0,0,0.36,3.72,4.01,3.64c3.65-0.08,4.14-1.76,4.14-1.76l0.48-7.58L292.01,155.03z"
					/>
				<path class="st19" d="M307.45,149.53c-3.42,6.05-4.94,7.94-9.42,8.85c-5.8,1.18-12.3-2.73-9.28-12.37
					c2.46-7.86,6.2-6.65,9.85-6.35C302.26,139.95,311.15,142.98,307.45,149.53z"/>
				<path class="st17" d="M293.84,144.75c-0.91-0.47-2.08-0.07-2.79,0.67c-0.73,0.77-1.08,1.91-0.77,2.92
					c-1.4,0.02-2.63,1.39-2.5,2.79c-0.96-2.23-0.44-4.56-0.63-6.85c-0.19-2.29,0.06-4.77,1.54-6.52c0.61-0.72,1.39-1.27,2.22-1.71
					c3.15-1.68,7.12-1.73,10.32-0.15c0.66,0.33,2.32,1.37,4.64,0.81c4.42-1.07,7,1.92,4.35,4.72c0.85,0.31,1.79,0.69,2.17,1.51
					c0.1,0.21,0.15,0.47,0.02,0.66c-0.09,0.13-0.25,0.2-0.41,0.25c-0.74,0.25-1.55,0.31-2.33,0.18c0.3,0.25,1.94,0.35,2.43,1.31
					c1.32,2.54-3.9,1.26-4.7,1c0.91,0.17,3.29,2.07,2.53,3.38c-0.15,0.26-3.37,2.13-6.75-1.8c-0.79-0.91-1.77-1.76-2.93-2.07
					c-0.91-0.24-1.87,0.09-2.76,0.43c-0.65,0.24-2.3,1.25-2.77,0.65C294.22,146.28,294.89,145.27,293.84,144.75z"/>
				<path class="st19" d="M327.35,199.77c-0.9,3.09-1.8,3.39-0.72,3.88c1.09,0.49,1.97-1.24,1.97-1.24l5.02,1
					c0,0-1.13-3.26-1.92-3.65C330.9,199.37,327.35,199.77,327.35,199.77z"/>
				<path class="st19" d="M261.79,203.43c0.66,1.63,0.84,1.64,1.75,3.6c1.75,3.74-2.34,9.65-4.88,3.2c-0.7-1.77-0.71-5.02-0.71-5.02
					L261.79,203.43z"/>
			</g>
			<g>
				<g>
					<path class="st17" d="M300.98,136.43c3.43,0.19,7.65-2.23,10.34,0.87c0.25,0.29,0.75-0.09,0.53-0.41
						c-2.57-3.69-7.34-0.94-10.86-1.04C300.62,135.85,300.62,136.41,300.98,136.43L300.98,136.43z"/>
					<path class="st17" d="M302.36,134.54c-2.35,0.41-4.6-0.7-6.95-0.33c-1.91,0.3-3.61,1.28-5.05,2.53
						c-0.37,0.32,0.11,0.95,0.53,0.68c2.02-1.33,3.96-2.48,6.48-2.29c1.83,0.13,3.38,0.67,5.2,0.13
						C303.03,135.12,302.83,134.46,302.36,134.54L302.36,134.54z"/>
					<path class="st17" d="M289.02,137.74c-1.65,1.03-2.6,2.4-2.8,4.37c-0.14,1.42-0.18,4.67,1.25,5.47
						c0.34,0.19,0.7-0.26,0.42-0.55c-0.92-0.93-1-3.44-0.93-4.62c0.1-1.81,0.86-3.19,2.3-4.27
						C289.49,137.97,289.29,137.57,289.02,137.74L289.02,137.74z"/>
					<path class="st17" d="M314.39,143.37c-0.85-1.47-3.02-2.77-4.69-1.84c-0.26,0.15-0.14,0.55,0.15,0.55
						c0.73,0.01,1.4-0.08,2.11,0.14c0.81,0.25,1.49,0.72,1.97,1.41C314.13,143.9,314.56,143.67,314.39,143.37L314.39,143.37z"/>
				</g>
			</g>
			<g>
				<path class="st16" d="M203.12,295.92c10.61,3.9,19.82,16.06,17.7,24.91c-2.39,9.99-9.28,14.3-9.28,14.3l-2.17-4.01
					c0,0,5.51-8.61,5.03-12.68c-0.77-6.51-8.99-10.87-8.99-10.87L203.12,295.92z"/>
				<path class="st17" d="M177,408.64c0,0-6.51,2.63-8.14,4.12l12.9-0.03l-0.01-4.1L177,408.64z"/>
				<path class="st17" d="M205.51,408.39c0,0,1.85,2.14,2.19,4.29l-8.8,0.02c0.15-1.48,0.78-2.91,1.64-4.3L205.51,408.39z"/>
				<path class="st20" d="M206.05,408.58l-6.01,0.01c0.12-7.08-1.34-31.21-2.75-49.25c-0.83-10.58-1.65-19.08-2.13-20.8l3.22-0.71
					l12.15-2.7C212.61,344.63,207.81,388.25,206.05,408.58z"/>
				<path class="st21" d="M183.96,338.16c-4.69,7.38-5.9,60.74-7.86,70.63l5.7,0.32c0,0,6.55-33.64,20.49-71.46L183.96,338.16z"/>
				<path class="st11" d="M204.69,337.65c-2.75,7.47-5.22,14.78-7.4,21.69c-0.83-10.58-1.65-19.08-2.13-20.8l3.22-0.71
					L204.69,337.65z"/>
				<path class="st21" d="M183.96,338.16c-4.69,7.38-5.9,60.74-7.86,70.63l5.7,0.32c0,0,6.55-33.64,20.49-71.46L183.96,338.16z"/>
				<path class="st19" d="M187.54,278.59c0,0-3.65,13.9,5.47,13.89l-0.54,3.55l6.92,0.76l-1.5-4.95c0,0,1.37-8.74,1.46-10.32
					C199.53,278.57,191.27,273.37,187.54,278.59z"/>
				<g>
					
						<rect x="162.33" y="263.01" transform="matrix(1 -1.973264e-03 1.973264e-03 1 -0.5299 0.3235)" class="st17" width="2.69" height="11.35"/>
					<path class="st9" d="M171.37,262.99l-15.42,0.03c-1.08,0-1.96-0.87-1.96-1.95l0-0.4c0-1.08,0.87-1.96,1.95-1.96l15.42-0.03
						c1.08,0,1.96,0.87,1.96,1.95l0,0.4C173.32,262.11,172.45,262.99,171.37,262.99z"/>
				</g>
				<path class="st19" d="M161.59,277.32c-0.07-2.57-2.2-1.9-1.03-6.1c0.72-2.6,6.09,0.42,5.42,2.22c-0.67,1.8-1.44,4.65-1.44,4.65
					L161.59,277.32z"/>
				<path class="st9" d="M193.07,295.21c-13.63,0.9-14.53,5.5-20.63,4.78c-9.03-1.06-7.45-17.83-6.33-23.84l-5.39,0.01
					c0,0-9.72,38.19,20.98,31.13c-1.18,6.69,6.46,17.62-0.95,30.88c11.65,3.16,22.53,3.94,31.84-0.06
					c-1.63-2.2,3.34-24.39-6.39-40.36C204.3,294.62,194.07,295.15,193.07,295.21z"/>
				<path class="st9" d="M193.07,295.21c-13.63,0.9-14.53,5.5-20.63,4.78c-9.03-1.06-7.45-17.83-6.33-23.84l-5.39,0.01
					c0,0-9.72,38.19,20.98,31.13c-1.18,6.69,6.46,17.62-0.95,30.88c11.65,3.16,22.53,3.94,31.84-0.06
					c-1.63-2.2,3.34-24.39-6.39-40.36C204.3,294.62,194.07,295.15,193.07,295.21z"/>
				<path class="st18" d="M191.2,281.26c0.89,0.23,1.92,0.4,2.4,1.15c0.31,0.49,0.29,1.1,0.26,1.67c0.16-0.6,0.83-1.03,1.46-0.95
					c0.64,0.07,1.18,0.64,1.19,1.26c0.01,0.29-0.09,0.57-0.2,0.84c-0.27,0.68-0.61,1.32-1.01,1.93c1.11,0.41,2.05,3.67,2.6,4.68
					c1.87-0.47,6.04-2.08,6.4-8.71c0.17-3.09-0.77-6.79-4.12-8.84c-2.37-1.45-6.29-1.47-9-0.78c-2.2,0.56-5.7,2.76-4.07,5.32
					C187.93,280.12,189.73,280.88,191.2,281.26z"/>
				<path class="st18" d="M202.87,277.03c1.27-0.42,2.88-0.2,3.64,0.86c0.59,0.83,0.54,1.91,0.73,2.9c0.09,0.48,0.26,0.96,0.63,1.29
					c0.44,0.39,1.08,0.49,1.68,0.52c1.47,0.08,2.95-0.11,4.4,0.14c1.45,0.25,2.93,1.06,3.34,2.41c0.23,0.75,0.1,1.57,0.38,2.3
					c0.41,1.1,1.58,1.73,2.6,2.37c2.17,1.36,4.02,3.2,5.35,5.33c0.85,1.35,1.5,2.85,1.6,4.42c0.1,1.57,1.24,3.65,0.93,5.19
					c-0.33,1.67-1.97,3.93-5.21,4.97c-5.6,1.8-7.38,2.58-12.75-0.61c-0.65-0.39-1.91-1.69-2.5-2.16c-0.46-0.37-0.75-0.9-0.91-1.45
					c-0.45-1.54,0.07-3.2,0.87-4.6c0.8-1.4,1.89-2.64,2.71-4.03c0.49-0.84,0.89-1.77,0.85-2.73c-0.02-0.36-0.11-0.73-0.37-0.99
					c-0.23-0.22-0.55-0.33-0.87-0.39c-1.18-0.23-2.48,0.01-3.54-0.52c-1.04-0.51-1.61-1.77-1.29-2.85c0.21-0.72,0.76-1.33,0.91-2.06
					c0.22-1.06-0.44-2.14-1.36-2.76s-2.05-0.86-3.16-1.04c-0.55-0.09-1.12-0.18-1.56-0.5c-0.55-0.39-0.8-1.08-0.79-1.73
					C199.22,279.23,200.91,277.69,202.87,277.03z"/>
			</g>
			<g>
				<g>
					<path class="st18" d="M201.87,282.62c6.74,1.46-1.77,7.85,1.8,10.91c1.02,0.87,2.2,0.6,3.39,0.76
						c4.58,0.63,2.07,3.74,1.76,6.18c-0.05,0.37,0.56,0.44,0.64,0.09c0.39-1.68,1.93-3.74,1.14-5.53c-0.7-1.58-2.44-1.39-3.87-1.44
						c-1.79-0.05-3.76,0-3.09-3.55c0.15-0.79,0.78-1.59,1.09-2.34c0.35-0.86,0.59-1.71,0.4-2.65c-0.33-1.59-1.65-2.52-3.17-2.77
						C201.74,282.24,201.64,282.57,201.87,282.62L201.87,282.62z"/>
				</g>
			</g>
			<g>
				<g>
					<path class="st18" d="M187.97,274.37c5.2-2.64,10.38-2.11,14.77,1.76c0.3,0.26,0.7-0.14,0.44-0.44
						c-3.85-4.34-10.7-5.1-15.35-1.57C187.69,274.23,187.81,274.45,187.97,274.37L187.97,274.37z"/>
				</g>
			</g>
			<g>
				<polygon class="st19" points="362.63,290.68 360.38,295.21 365.89,297.46 366.48,292.25 				"/>
				<path class="st19" d="M365.96,275.93c-12.49,5.44-7.37,18.62,0.23,17.07c3.7-0.75,5.57-12.67,5.57-12.67L365.96,275.93z"/>
				<path class="st13" d="M370.11,274.05c-0.41-0.76-0.8-1.58-1.48-2.12c-0.68-0.54-1.75-0.72-2.38-0.13
					c-0.84,0.78-0.35,2.24,0.5,3.01c-0.73,0.09-1.6-0.42-2.14,0.09c-0.41,0.38-0.27,1.06-0.03,1.57c0.55,1.19,1.45,2.23,2.56,2.93
					c-0.63,0.36-1.37,1.06-0.99,1.68c0.11,0.17,0.28,0.29,0.39,0.46c0.24,0.4,0.01,0.92-0.24,1.32c-0.39,0.65-0.82,1.28-1.27,1.89
					c0.43-0.59,1.48-0.35,1.79,0.31c0.31,0.66,0.04,1.47-0.44,2.01c-0.27,0.3-0.61,0.55-1.01,0.64c-0.34,0.08-1.86,4.76-0.68,5.68
					c1.46,1.13,6.42,0.15,7.14-1.13c0.72,0.78,1.77,1.37,2.81,1.16c1.04-0.21,1.83-1.49,1.27-2.39c1.12,0.41,2.49,0.05,3.26-0.87
					c0.77-0.92,0.88-2.33,0.27-3.36c0.61-0.18,0.74-1.01,0.58-1.63c-0.32-1.25-1.34-2.31-2.58-2.66c0.63,0.01,1.13-0.63,1.16-1.26
					c0.03-0.63-0.3-1.23-0.7-1.72c-1.17-1.45-2.56-1.83-4.29-2.05C371.85,277.28,370.88,275.49,370.11,274.05z"/>
				<path class="st17" d="M358.4,407.77c0,0-7.31,3.51-8.29,4.6c0,0,14.38,0.65,15.51-0.03c1.13-0.68-2.3-4.58-2.3-4.58
					L358.4,407.77z"/>
				<path class="st17" d="M385.59,403.8c0,0-6.42,4.95-7.16,6.22c0,0,15.16-2.25,15.16-3.24c0-0.99-3.2-4.01-3.2-4.01L385.59,403.8z
					"/>
				<path class="st22" d="M365.47,340.01c-0.27,1.49-10.28,40.99,18.36,64.68l8.29-1.9c0,0-9.65-9.05-14.2-25.35
					c-4.3-15.41-0.89-16.92,1.69-25.4c2.86-9.39,0.73-16.21,0.73-16.21L365.47,340.01z"/>
				<path class="st18" d="M351.78,339.89c-4.54,10.85-12.33,47.82,4.65,68.63l8.48-0.02c0,0-6.68-7.32-7.43-24.31
					c-0.75-16.99,3.57-24.45,6.62-30.05c3.05-5.6,5.87-15.13,5.87-15.13L351.78,339.89z"/>
				<path class="st16" d="M345.8,272.64c-2.25,7.94-2.99,22.62,8.29,28.53l7.55-1.84c0,0-13.62-7.14-10.7-25.18L345.8,272.64z"/>
				<path class="st9" d="M324.99,268.57l5.86-0.72c0,0-0.71,24.62,27.73,26.7c21.71,1.58,23.41,42.32,23.41,42.32
					c-7,4.71-18.74,6.14-33.79,5.06c0,0,0.96-29.06-1.43-37.02C346.78,304.91,323.15,297.47,324.99,268.57z"/>
				<path class="st19" d="M317.82,264.1c-0.99,1.15,3.15,2.61,7.17,4.47l5.15-0.63c0,0,0.06-1.03,0-2.1
					c-0.06-1.07-0.6-1.68-1.21-0.76c-0.61,0.92-3.21,1.23-4.44,0.39C323.26,264.63,318.81,262.95,317.82,264.1z"/>
				<path class="st19" d="M345.8,272.64c-1.89-1.85-1.38-1.74-1.38-1.74l5.75,1.3c0,0,1.26-2.81,2.34-2.88
					c1.07-0.08-0.81,1.93-0.38,2.68c0.43,0.75-1.18,2.16-1.18,2.16L345.8,272.64z"/>
			</g>
			<g>
				<g>
					<path class="st13" d="M373.34,276.77c1.18,0.3,2.38,0.42,3.36,1.23c0.97,0.8,1.4,2.17,0.71,3.28c-0.33,0.52,0.45,0.93,0.8,0.47
						c0.9-1.17,0.65-2.77-0.25-3.88c-1.04-1.27-2.97-1.8-4.55-1.63C373.12,276.27,373.02,276.69,373.34,276.77L373.34,276.77z"/>
				</g>
			</g>
			<g>
				<g>
					<path class="st13" d="M378.54,287.44c0.78,0.46,1.43,1.2,1.1,2.17c-0.31,0.89-1.21,1.42-1.94,1.93
						c-0.35,0.25-0.05,0.78,0.34,0.58c1.08-0.57,2.22-1.37,2.39-2.69c0.15-1.15-0.62-2.02-1.58-2.54
						C378.5,286.7,378.19,287.23,378.54,287.44L378.54,287.44z"/>
				</g>
			</g>
			<g>
				<g>
					<path class="st13" d="M365.4,293.4c2.65,1.65,6.4,1.38,8.59-0.94c0.27-0.29-0.1-0.83-0.44-0.57c-2.4,1.77-5.12,2.35-7.93,1.14
						C365.37,292.92,365.16,293.25,365.4,293.4L365.4,293.4z"/>
				</g>
			</g>
			<g>
				<g>
					<path class="st13" d="M378.88,278.51c1.52,1.45,0,3.43-0.98,4.67c-0.22,0.27,0.12,0.64,0.39,0.39
						c0.87-0.81,1.74-1.71,1.86-2.95c0.09-0.94-0.3-1.83-1.13-2.29C378.91,278.27,378.79,278.42,378.88,278.51L378.88,278.51z"/>
				</g>
			</g>
		</g>
		<g>
			<polygon class="st16" points="209.73,95.82 207.38,90.09 230.01,81.5 			"/>
			<polygon class="st5" points="210.87,92.29 230.01,81.5 216.68,95.04 			"/>
			<polygon class="st5" points="202.2,87.76 230.01,81.5 207.38,90.09 			"/>
			<polygon class="st9" points="210.87,92.29 209.73,95.82 213.18,93.38 			"/>
		</g>
		<path class="st15" d="M207.07,95.06c-5.91-1-13.93,4.98-10.48,11.2c1.17,2.12,7.23,1.2,6.78-1.14c-0.22-1.12-1.59-1.6-2.72-1.47
			c-6.6,0.76-6.87,6.29-6.57,7.7c1.51,7.28,12.67,4.82,16.42,3.79"/>
	</g>
</g>
<g id="DESIGNED_BY_FREEPIK">
</g>
</svg>
