<?xml version="1.0" encoding="utf-8"?>
<!-- Generator: Adobe Illustrator 23.1.0, SVG Export Plug-In . SVG Version: 6.00 Build 0)  -->
<svg version="1.1" id="Layer_1" xmlns="http://www.w3.org/2000/svg" xmlns:xlink="http://www.w3.org/1999/xlink" x="0px" y="0px"
	 viewBox="0 0 477 369" style="enable-background:new 0 0 477 369;" xml:space="preserve">
<style type="text/css">
	.st0{fill:#CBDBF0;}
	.st1{fill:none;stroke:#CBDBF0;stroke-linecap:round;stroke-linejoin:round;}
	.st2{fill:none;stroke:#CBDBF0;stroke-linecap:round;stroke-linejoin:round;stroke-dasharray:3.9929,3.9929;}
	.st3{fill:#618DC9;}
	.st4{fill:none;stroke:#14489F;stroke-linecap:round;stroke-linejoin:round;stroke-miterlimit:10;}
	.st5{fill:#00AD9F;}
	.st6{fill:none;stroke:#00AD9F;stroke-linecap:round;stroke-linejoin:round;stroke-miterlimit:10;}
	.st7{fill:#3D60AD;}
	.st8{fill:#63C5B5;}
	.st9{opacity:0.2;fill:#5275A0;}
	.st10{fill:#8ED2C8;}
	.st11{fill:#5055A5;}
	.st12{fill:none;stroke:#14489F;stroke-linecap:round;stroke-linejoin:round;stroke-miterlimit:10;stroke-dasharray:4;}
	.st13{fill:none;stroke:#CBDBF0;stroke-linecap:round;stroke-linejoin:round;stroke-miterlimit:10;stroke-dasharray:4;}
	.st14{fill:#14489F;}
	.st15{fill:#FFFFFF;}
	.st16{fill:#0D2440;}
	.st17{fill:#EE832A;}
	.st18{fill:#FAB8A3;}
	.st19{fill:#097F77;}
	.st20{fill:#089790;}
	.st21{fill:#D8752A;}
</style>
<g>
	<ellipse class="st0" cx="168.65" cy="350.28" rx="38.65" ry="3.61"/>
	<ellipse class="st0" cx="367.2" cy="350.28" rx="38.65" ry="3.61"/>
	<g>
		<g>
			<g>
				<path class="st1" d="M448.86,96.06c-0.11-0.67-0.23-1.33-0.36-1.97"/>
				<path class="st2" d="M447.55,90.22C440.66,66.74,418.67,69,398.8,69.04C377.42,69.09,46.3,69.77,46.3,69.77
					c-33.28,0.07-30.05,48.11-4,48.05c14.98-0.03,20.68,28.1-5.22,28.15c-15.54,0.03-16.04,19.73-5.59,23.68"/>
				<path class="st1" d="M33.4,170.17c0.63,0.11,1.3,0.17,2,0.16"/>
			</g>
		</g>
		<path class="st3" d="M39.48,169.43c0.44,2.61-1.31,5.08-3.92,5.53c-2.61,0.44-5.08-1.31-5.53-3.92c-0.44-2.61,1.31-5.08,3.92-5.53
			C36.57,165.06,39.04,166.82,39.48,169.43z"/>
		<path class="st3" d="M453.57,98.22c-0.47,2.6-2.97,4.33-5.57,3.85c-2.6-0.47-4.33-2.97-3.85-5.57c0.47-2.6,2.97-4.33,5.57-3.85
			C452.32,93.12,454.05,95.61,453.57,98.22z"/>
	</g>
	<g>
		<g>
			<path class="st3" d="M88.3,134.44c-0.69,3.89-1.7,7.69-2.93,11.44c-2.65,8.09-6.31,15.88-10.01,23.57
				c-1.93,4.02-9.76,13.32-13.96,15.09c0.49-10.49,0.53-22.74-0.69-33.33c-1.17-10.2,2.5-17.93-1.5-27.39
				c-0.51-1.21-1.04-2.42-1.57-3.63c-1.99-4.5-3.96-9.02-4.58-13.87c-0.8-6.15,1.11-13.16,6.43-16.36c3.83-2.3,8.82-2.18,12.91-0.37
				c4.09,1.81,7.37,5.12,9.86,8.83C89.23,108.78,90.49,122.16,88.3,134.44z"/>
			<path class="st4" d="M69.7,100.47c7.83,11.06,8.51,23.94,9.19,37.47c0.68,13.53-2.57,27.24-9.26,39.02"/>
		</g>
		<g>
			<path class="st5" d="M69.37,304.45c-5.49-4.85-11.04-9.77-15.1-15.87c-3.53-5.31-5.81-11.34-8.89-16.93
				c-1.99-3.61-4.35-7.1-5.5-11.06c-1.15-3.96-0.88-8.66,1.94-11.67c2.94-3.15,7.99-3.63,11.98-2.01c3.99,1.62,7.04,4.98,9.36,8.6
				c3.09,4.81,5.16,10.28,6.02,15.93c0.78,5.12,0.58,10.36,1.38,15.48c0.74,4.77,2.35,9.35,4.37,13.72
				c1.83,3.96,6.48,11.03,7.66,15.09C79.3,317.36,71.71,306.52,69.37,304.45z"/>
			<path class="st6" d="M50.18,254.15c5.22,2.28,7.29,8.51,8.38,14.1c1.24,6.36,0.96,13.25,3.88,19.04
				c5.5,10.91,12.65,23.32,17.97,27.03"/>
		</g>
		<g>
			<path class="st7" d="M42.36,289.53c-4.55-1.8-10.64-2.54-13.56,1.39c-2.44,3.29-1.18,7.96,0.51,11.69
				c1.43,3.15,3.24,6.36,6.24,8.07c2.05,1.17,4.46,1.52,6.81,1.8c6.55,0.78,13.14,1.16,19.74,1.14c7.64-0.02,16.9,3.1,23.23,7.87
				C77.22,306.41,57.69,295.58,42.36,289.53z"/>
			<path class="st4" d="M34.37,299.33c5.8,0.25,11.65,0.65,17.21,2.3c5.69,1.68,27.58,11.73,31,16"/>
		</g>
		<g>
			<path class="st8" d="M92.04,258.57c-5.93-9.28-16.07-15.76-26.98-17.23c-8.06-1.08-16.35,0.42-24.31-1.25
				c-8.36-1.75-15.9-7.14-20.26-14.49c-4.36-7.35-5.5-16.53-3.05-24.72c1.87-6.22,6.14-12.12,12.32-14.11
				c3.37-1.08,7.05-0.93,10.49-0.11c3.18,0.76,6.13,2.09,8.85,3.82c6.22,3.94,11.25,10,15.03,16.44
				c3.43,5.85,11.89,14.96,17.65,20.89c3.38,3.46,5.83,5.83,5.83,5.83C91.55,238.56,89.7,252.72,92.04,258.57z"/>
			<path class="st6" d="M27.96,204.76c19.37,8.74,40.49,20.2,54.23,36.42"/>
		</g>
		<g>
			<path class="st9" d="M84.04,239c0,0-28.86-23.4-34.95-48.51c6.22,3.94,11.25,10,15.03,16.44c3.43,5.85,11.89,14.96,17.65,20.89
				C82.45,230.96,83.2,234.65,84.04,239z"/>
			<path class="st9" d="M85.37,145.88c-2.65,8.09-6.31,15.88-10.01,23.57c-1.93,4.02-9.76,13.32-13.96,15.09
				c0.49-10.49,0.53-22.74-0.69-33.33c-1.17-10.2,2.5-17.93-1.5-27.39c-0.51-1.21-1.04-2.42-1.57-3.63c0.37,0.12,0.73,0.25,1.08,0.4
				c6.58,2.82,9.62,9.78,10.18,16.54c0.47,5.58-0.54,11.17-1.29,16.72c-0.35,2.56-0.63,5.18-0.08,7.69
				c0.01,0.03,0.02,0.05,0.02,0.08c0.69,2.99,5.06,2.82,5.62-0.21l1.75-9.29c0.52-2.78,1.09-5.69,3.37-7.63
				c0.9-0.77,2.06-1.25,3.24-1.21C83.41,143.35,84.59,144.45,85.37,145.88z"/>
			<path class="st10" d="M84.05,233.14c-4.56-23.81-6.96-27.48-4.95-33.45c2.56-7.61,1.12-15.25,3.53-22.91
				c2.41-7.65,4.05-15.88,2.11-23.67c-0.61-2.46-1.86-5.14-4.82-5.25c-1.19-0.04-2.34,0.44-3.24,1.21
				c-2.28,1.94-2.85,4.85-3.37,7.63L71.56,166c-0.57,3.02-4.93,3.2-5.62,0.2c-0.01-0.03-0.01-0.05-0.02-0.08
				c-0.56-2.51-0.27-5.13,0.07-7.69c0.75-5.56,1.76-11.14,1.3-16.73c-0.56-6.76-3.6-13.72-10.19-16.53c-2.33-1-4.97-1.22-7.43-0.59
				c-6.87,1.76-8.65,8.48-7.64,14.21c0.71,4.04,2.6,7.75,4.31,11.47c4.18,9.09,1.11,17.43,1.69,27.42
				C49.63,205.26,84.05,233.14,84.05,233.14z"/>
			<path class="st6" d="M53.39,131.79c3.39,16.94,6.82,34,13.4,49.98c1.93,4.68,2.87,10.85,14.04,23.59"/>
		</g>
		<g>
			<path class="st3" d="M185.63,136.13c-3.51-4.01-6.75-8.09-10.16-12.02c-2.21-2.55-4.49-5.04-6.97-7.4
				c-1.23-1.18-2.5-2.32-3.84-3.43c-7.92-6.54-16.76-11.97-26.21-16.01c-5.7-2.44-11.72-4.45-16.56-8.34
				c-4.84-3.88-8.32-10.26-6.71-16.25c1.17-4.32,4.84-7.68,9.05-9.22c4.2-1.53,8.86-1.41,13.23-0.47
				c12.2,2.63,22.39,11.4,29.32,21.77c0.12,0.18,0.25,0.37,0.37,0.56c5.08,7.75,8.63,16.37,11.72,25.15
				c0.99,2.82,1.93,5.66,2.86,8.49C183.13,123.19,187.43,131.94,185.63,136.13z"/>
			<path class="st4" d="M129.82,73.18c13.31,2.54,22.73,11.35,32.6,20.63c9.87,9.28,17.03,21.41,20.38,34.54"/>
		</g>
		<g>
			<path class="st9" d="M175.47,124.11c-0.11,1.38-0.07,2.76,0.19,4.16c-3.33-0.76-5.64-5.93-7.16-11.56
				c-1.49-5.47-2.23-11.39-2.46-14.12c-0.45-5.76-0.08-11.6,1.11-17.27c5.08,7.75,8.63,16.37,11.72,25.15
				c-1.06,3.15-1.97,6.34-2.72,9.56C175.83,121.4,175.58,122.75,175.47,124.11z"/>
			<path class="st8" d="M198.57,76.06c-1.13,4.99-4.14,9.3-6.8,13.68c-1.4,2.3-2.71,4.67-3.93,7.07
				c-3.91,7.68-6.89,15.83-8.86,24.22c-0.65,2.75-1.01,5.45-0.49,8.24c-6.56-1.5-9.18-20.15-9.62-25.69
				c-0.79-9.98,0.91-20.21,5.02-29.35c1.79-4.01,4.11-7.95,7.68-10.52c3.56-2.57,8.6-3.47,12.37-1.23c2.27,1.35,3.73,3.59,4.44,6.14
				C199.08,71,199.11,73.65,198.57,76.06z"/>
			<path class="st6" d="M175.98,123.78c-4.08-10.25-1.6-31.94,4.94-45.57c1.97-4.11,4.78-7.96,8.71-10.25"/>
		</g>
		<g>
			<path class="st9" d="M198.57,76.06c-1.13,4.99-4.14,9.3-6.8,13.68c-1.4,2.3-2.71,4.67-3.93,7.07c-1.79-3.02-3.02-6.35-3.36-9.83
				c-0.55-5.81,1.67-12.03,6.39-15.45c2.21-1.59,4.8-2.5,7.51-2.91C199.08,71,199.11,73.65,198.57,76.06z"/>
			<path class="st5" d="M236.41,119.47c-0.31,1.91-0.88,3.75-1.7,5.52c-2.91,6.3-9.02,11.7-18.17,16.1c0,0-0.51-9.96-0.62-12.63
				c-0.45-11.42-12.84-17.73-20.68-26.06c-3.99-4.25-7.02-9.61-7.58-15.42c-0.55-5.81,1.67-12.03,6.39-15.45
				c3.96-2.86,9.14-3.48,14.02-3.11c7.86,0.63,15.79,3.92,20.68,10.06c0.21,0.23,0.39,0.48,0.57,0.72
				c2.99,4.09,4.53,9.07,5.66,14.03C236.95,101.82,237.83,110.76,236.41,119.47z"/>
			<path class="st6" d="M197.43,77.65c8.58,4.44,17.17,9.8,22.16,18.06c6.97,11.53,5.45,26.53,0.08,38.88"/>
		</g>
		<g>
			<path class="st8" d="M379.91,193.12c5.47-9,2.67-20.58,4.58-30.93c1.46-7.96,5.89-15.34,12.23-20.38
				c3.98-3.16,9.57-5.42,14.06-3.05c0.97,0.51,2.13,1.24,3.07,0.66c0.56-0.34,0.78-1.04,0.92-1.68c1.14-5.59-1.55-11.7,0.65-16.97
				c1.18-2.84,3.63-4.96,6.22-6.61c5-3.19,10.85-5.02,16.77-5.26c1.57-0.06,3.21,0,4.62,0.7c2.54,1.27,3.7,4.44,3.36,7.26
				c-0.34,2.82-1.9,5.35-3.62,7.61c-5.74,7.51-14.15,13.99-15.26,23.37c-0.14,1.18-0.14,2.44,0.4,3.5c0.53,1.03,1.51,1.76,2.06,2.77
				c1.77,3.25-1.65,6.94-4.98,8.53c-3.05,1.46-6.35,2.37-9.72,2.69c-2.32,0.22-4.93,0.27-6.51,1.98c-2.91,3.16,0.43,8.21-0.18,12.46
				c-0.38,2.65-2.3,4.79-4.24,6.65c-3.59,3.45-7.51,6.54-11.7,9.23c-3.4,2.18-6.99,4.1-10,6.78c-3.01,2.68-5.44,6.31-5.64,10.34"/>
			<path class="st6" d="M387.12,184.36c0.89-4.36,2.92-8.4,4.93-12.37c3.14-6.21,6.34-12.51,11.08-17.6
				c3.6-3.87,7.99-6.93,11.65-10.74c2.61-2.72,4.83-5.8,6.58-9.14c0.95-1.81,1.77-3.71,3.04-5.3c1.52-1.89,3.59-3.24,5.4-4.86
				c2.44-2.18,4.4-4.89,5.72-7.89"/>
		</g>
		<g>
			<path class="st3" d="M458.42,199.36c-1.23,4.74-3.06,9.43-6.2,13.19c-2.17,2.59-4.87,4.64-7.82,6.31
				c-1.52,0.87-3.12,1.63-4.73,2.31c-6.26,2.63-12.99,4.12-19.77,4.38c-9.88,0.37-20.04-1.81-29.52,1.01
				c-4.35,1.29-8.36,3.64-11.65,6.75c-2.06,1.93-3.83,4.16-5.23,6.61l1.29-8.2c2.39-8.82,4.83-17.8,9.71-25.53
				c3.15-5.01,7.24-9.37,11.59-13.38c6.95-6.42,14.66-12.07,23.17-16.2c6.88-3.34,14.52-5.69,22.12-4.76
				c7.59,0.92,15.05,5.72,17.42,12.99C460.32,189.51,459.66,194.61,458.42,199.36z"/>
			<path class="st4" d="M381.25,225.48c7.26-10.74,18.13-19,30.43-23.1c7.66-2.56,15.77-3.53,23.53-5.77
				c7.76-2.24,15.51-6.04,20.06-12.72"/>
		</g>
		<g>
			<path class="st8" d="M386.03,304.25c0.43-11.03,6.13-21.21,13.06-29.81c5.77-7.17,12.74-13.73,21.35-17
				c2.7-1.02,5.66-1.71,8.46-1.02c2.8,0.69,5.34,3.08,5.39,5.97c0.04,2.43-1.59,4.56-3.31,6.28c-5.66,5.67-12.97,9.3-19.83,13.44
				c-11.78,7.12-22.98,16.62-27.65,29.57"/>
			<path class="st6" d="M390.39,294.6c7.2-16.06,25.84-30.42,38.13-32.21"/>
		</g>
		<g>
			<path class="st5" d="M381.53,313.02c-0.1-1.85,5.93-6.68,7.29-7.91c7.53-6.83,16.47-11.85,25.92-14.81
				c3.82-1.2,7.89-2.07,11.71-1.15c3.83,0.92,7.33,4.06,7.71,8.18c0.36,4-2.32,7.92-5.75,9.85c-3.43,1.94-7.43,2.23-11.25,2.01
				c-5.9-0.34-11.7-1.81-17.62-1.77C393.61,307.47,385.29,308.07,381.53,313.02z"/>
			<path class="st6" d="M387.67,307.41c12.11-6.56,30.42-10.83,43.72-9.22"/>
		</g>
		<g>
			<path class="st9" d="M236.41,119.47c-0.31,1.91-0.88,3.75-1.7,5.52c-4.25-9.01-7.99-20.77-8.89-35.22
				c-0.24-3.91,0.85-7.93,2.93-11.3c0.21,0.23,0.39,0.48,0.57,0.72c2.99,4.09,4.53,9.07,5.66,14.03
				C236.95,101.82,237.83,110.76,236.41,119.47z"/>
			<path class="st10" d="M278.31,118.96c9.04-3.21,18.44-5.77,26.66-10.73c2.49-1.5,4.88-3.24,6.65-5.54
				c1.76-2.3,2.85-5.24,2.46-8.12c-0.4-2.92-2.27-5.72-1.64-8.61c0.42-1.9,1.84-3.38,2.93-5c2.59-3.83,3.36-8.84,2.05-13.28
				c-1.42-4.76-4.99-8.58-7.02-13.11c-1.66-3.71-2.25-7.88-1.69-11.9c-7.59,0.1-14.51,4.25-21.97,5.63
				c-5.71,1.06-11.64,0.48-17.3,1.78c-10.31,2.37-18.75,11.45-20.35,21.91c-4.78-0.82-9.93,0.9-13.26,4.44
				c-3.53,3.76-5.52,9.11-5.2,14.26c2.33,37.43,23.76,56.95,23.76,56.95S274.86,120.19,278.31,118.96z"/>
			<g>
				<path class="st6" d="M258.08,118.7c-0.94-9.23,2.29-18.36,5.99-26.87c3.61-8.29,7.77-16.42,13.35-23.54
					c5.58-7.12,12.67-13.22,21.04-16.66"/>
				<path class="st6" d="M266.13,57.3c-0.95,8.23-0.28,18.15,1.86,26.15"/>
				<path class="st6" d="M269.53,80.5c9.4-6.03,23.86-9.69,35.01-9.05"/>
				<path class="st6" d="M246.54,82.04c11.32,4.77,11.78,21.41,12.09,26.14"/>
				<path class="st6" d="M261.71,97.6c8.66-6.21,21.17-8.08,30.38-5.76"/>
				<path class="st6" d="M285.33,53.02c-2.6,3.21-3.25,7.03-2.99,9.68"/>
				<path class="st6" d="M284.81,60.35c3.99-2.04,9.33-2.51,15.04-1.08"/>
			</g>
		</g>
		<g>
			<path class="st11" d="M62.15,78.46c1.06-0.06,8.32-5.43,11.11-7.24c0.79-0.51,1.58-1.04,2.13-1.8c0.55-0.76,0.81-1.8,0.41-2.65
				c-0.5-1.05-1.32-2.1-3.39-2.1c-3.61,0.01-4.87,1.2-6.63,3.01C59.96,73.69,62.15,78.46,62.15,78.46z"/>
			<path class="st11" d="M94.67,100.13c3.16,1.42,6.53,2.83,9.97,2.39c1.33-0.17,2.79-0.78,3.23-2.04c0.38-1.08-0.14-2.33-1-3.09
				c-0.86-0.76-1.99-1.13-3.11-1.4c-4.2-1.03-10.11-0.46-14.27,0.72C89.49,96.72,92.79,99.28,94.67,100.13z"/>
			<path class="st11" d="M115.47,53.47c-1.41-0.89-2.97-2.08-2.96-3.75c0-1.67,1.74-2.94,3.41-2.95s3.22,0.9,4.48,2.01
				c5.31,4.67,4.65,9.99,4.65,9.99S117.04,54.46,115.47,53.47z"/>
			<path class="st11" d="M119.66,39.24c-1.24-0.53-2.51-1.17-3.24-2.31c-0.35-0.55-0.55-1.25-0.34-1.87
				c0.36-1.03,1.01-1.96,3.62-1.49c8.25,1.5,10.05,7.15,10.05,7.15S121.85,40.18,119.66,39.24z"/>
			<path class="st11" d="M143.83,51.74c3.31-0.29,6.73-1.93,8.81-4.52c0.79-0.98,1.51-2.05,1.77-3.28c0.26-1.23-0.02-2.63-0.97-3.45
				c-1.16-1-3-0.84-4.27,0c-1.28,0.84-2.1,2.22-2.76,3.59C145.53,45.92,143.83,51.74,143.83,51.74z"/>
			<path class="st4" d="M84.75,172.4c-8.01-7.06-16.03-14.13-24.04-21.19c-4.27-3.76-8.63-7.64-11.33-12.65
				c-5.81-10.77-2.46-24.76,5.39-34.15c7.85-9.39,19.35-14.93,30.91-18.96c11.55-4.03,23.58-6.86,34.59-12.2
				c6.91-3.35,13.85-8.33,15.75-15.77c1.14-4.47,0.18-9.44-2.54-13.16c-2.72-3.73-7.16-6.15-11.77-6.42"/>
			<path class="st4" d="M149.43,44.06c-2.19,6.72-10.72,10.81-14.61,16.64"/>
			<path class="st4" d="M118.81,51.79c1.68,1.77,3.69,3.24,5.16,5.19c3.1,4.13,3.35,10.84-1.23,15"/>
			<path class="st4" d="M75.67,89.43c7.07,5.45,16.36,9.08,25.28,9.42"/>
			<path class="st4" d="M59.48,99.35c-3.26-9.6,0.29-21.1,8.39-27.19"/>
		</g>
		<g>
			<path class="st11" d="M317.9,58.79c-0.38-1.19-0.36-2.65,0.51-3.54c0.7-0.7,1.86-1.02,2.77-0.62c7.03,3.09,6.27,14.06,6.27,14.06
				S320.78,67.73,317.9,58.79z"/>
			<path class="st11" d="M317.73,79.34c-4.55,8.22,11.61,7.59,17.44,2.75C335.17,82.09,321.64,72.26,317.73,79.34z"/>
			<path class="st11" d="M338.16,59.42c-1.1-1.5-1.49-3.74-0.29-5.17c0.89-1.06,2.44-1.39,3.8-1.13c1.36,0.26,3.4,1.52,4.27,2.6
				c5.32,6.62,2.82,13.09,2.82,13.09S339.96,61.88,338.16,59.42z"/>
			<path class="st11" d="M402.34,79.77c-0.39-1.28-0.3-2.84,0.69-3.74c0.63-0.57,1.52-0.77,2.36-0.71c0.84,0.06,1.65,0.37,2.42,0.72
				c1.65,0.75,2.93,2.07,3.72,3.7c2,4.12,0.64,9.21,0.64,9.21S403.32,82.96,402.34,79.77z"/>
			<path class="st11" d="M382.15,94.85c-2.86-2.51-7.23-3.25-10.72-1.72c-0.89,0.39-1.73,0.94-2.29,1.72
				c-1.28,1.77-0.83,4.35,0.5,6.08c1.32,1.73,3.33,2.78,5.32,3.68c3.6,1.63,9.18,1.96,13.01,2.94
				C387.97,107.54,387.95,99.94,382.15,94.85z"/>
			<path class="st4" d="M322.93,60.56c2.38,7.78,9.11,13.66,16.6,16.83c7.49,3.18,15.74,4.02,23.87,4.54
				c8.12,0.53,16.34,0.79,24.19,2.92c7.65,2.08,15.28,6.4,18.56,13.62c4,8.79,0.46,19.29-5.16,27.15
				c-5.61,7.85-13.17,14.18-18.6,22.16c-2.49,3.66-4.58,7.96-4.07,12.36c0.67,5.87,5.62,10.19,10.21,13.91"/>
			<path class="st4" d="M341.65,57.7c5.38,5.95,9.68,15.26,10.73,23.22"/>
			<path class="st4" d="M323.56,80.7c3.08,0.82,6.2,1.64,9.38,1.65c3.18,0.01,6.87-1.76,9.16-3.97"/>
			<path class="st4" d="M407.61,80.25c2.88,2.78,4.64,6.71,4.79,10.71c0.15,4-2.07,8.86-4.74,11.85"/>
			<path class="st4" d="M377.45,98.43c5.76,5.3,10.77,9.59,17.17,14.09c2.92,2.06,8.72,4.69,11.3,4.01"/>
		</g>
		<g>
			<path class="st9" d="M444.4,218.86c-1.52,0.87-3.12,1.63-4.73,2.31c-6.26,2.63-12.99,4.12-19.77,4.38
				c-9.88,0.37-20.04-1.81-29.52,1.01c-4.35,1.29-8.36,3.64-11.65,6.75c-0.33,0.16-0.66,0.34-0.99,0.53
				c-0.79-6.69,15.89-15.41,20.96-17.68c9.15-4.1,19.35-5.92,29.35-5.12c4.38,0.35,8.87,1.21,12.48,3.7
				C442.08,215.81,443.44,217.24,444.4,218.86z"/>
			<path class="st8" d="M428.05,215.04c4.38,0.35,8.87,1.21,12.48,3.7c3.62,2.49,6.16,6.94,5.32,11.25
				c-0.98,5.02-6.17,8.29-11.25,8.9c-5.08,0.62-10.15-0.78-15.16-1.81c-11.09-2.28-22.53-2.81-33.78-1.54
				c-2.81,0.31-5.47,0.87-7.92,2.31c-0.79-6.69,15.9-15.41,20.97-17.68C407.85,216.06,418.05,214.24,428.05,215.04z"/>
			<path class="st6" d="M382.08,233.63c8.28-7.28,29.55-12.22,44.59-10.63c4.53,0.48,9.1,1.83,12.58,4.77"/>
		</g>
	</g>
	<path class="st12" d="M366.6,151.83l80.89-0.17c9.49-0.02,17.2,7.66,17.22,17.15v0c0.02,9.49-7.66,17.2-17.15,17.22l-55.33,0.11"/>
	<path class="st12" d="M121.86,211.22l-56.57,0.12c-5.36,0.01-9.69,4.36-9.68,9.72l0,0c0.01,5.36,4.36,9.69,9.72,9.68l16.49-0.03"/>
	<g>
		<path class="st13" d="M31.57,255.02c-19.38,0.04-19.78,28.95,4.87,28.89c24.66-0.05,348.13-0.72,363.38-0.75
			c15.25-0.03,16.86-23.83-1.99-23.79c-37.53,0.08-38.77-17.82-17.94-17.86"/>
		<path class="st3" d="M36.11,254.22c0.44,2.61-1.31,5.08-3.92,5.53c-2.61,0.44-5.08-1.31-5.53-3.92c-0.44-2.61,1.31-5.08,3.92-5.53
			C33.19,249.86,35.66,251.61,36.11,254.22z"/>
		<path class="st14" d="M389.19,241.64c0.44,2.61-1.31,5.08-3.92,5.53c-2.61,0.44-5.08-1.31-5.53-3.92
			c-0.44-2.61,1.31-5.08,3.92-5.53C386.27,237.28,388.75,239.04,389.19,241.64z"/>
	</g>
	<g>
		<path class="st9" d="M394.41,325.22l-300.89,0.62c-4.01,0.01-7.28-3.24-7.28-7.25l-0.41-199.33c-0.01-4.01,3.24-7.28,7.25-7.28
			l300.89-0.62c4.01-0.01,7.28,3.24,7.28,7.25l0.41,199.33C401.67,321.95,398.42,325.21,394.41,325.22z"/>
		<g>
			<path class="st15" d="M388.51,321.41l-300.89,0.62c-4.01,0.01-7.28-3.24-7.28-7.25l-0.41-199.33c-0.01-4.01,3.24-7.28,7.25-7.28
				l300.89-0.62c4.01-0.01,7.28,3.24,7.28,7.25l0.41,199.33C395.78,318.14,392.53,321.4,388.51,321.41z"/>
			<path class="st7" d="M387.58,107.54l-299.6,0.62c-4.37,0.01-7.9,3.56-7.9,7.93l0.01,6.88l315.43-0.65l-0.01-6.88
				C395.5,111.07,391.95,107.53,387.58,107.54z"/>
			<path class="st0" d="M88.34,322.03l45.27-0.09l-0.41-199.08l-53.18,0.11l0.39,191.18C80.42,318.51,83.97,322.04,88.34,322.03z"/>
			<g>
				<path class="st7" d="M388.16,109.54c2.9,0,5.26,2.36,5.27,5.26l0.41,199.33c0.01,2.91-2.35,5.27-5.26,5.28l-300.9,0.62
					c-2.9,0-5.26-2.36-5.27-5.26L82,115.44c0-1.41,0.54-2.73,1.54-3.73c0.99-1,2.32-1.55,3.72-1.55l300.88-0.62H388.16
					 M388.16,107.54c0,0-0.01,0-0.02,0l-300.89,0.62c-4.01,0.01-7.26,3.27-7.25,7.28l0.41,199.33c0.01,4.01,3.26,7.25,7.27,7.25
					c0,0,0.01,0,0.02,0l300.89-0.62c4.01-0.01,7.26-3.27,7.25-7.28l-0.41-199.33C395.42,110.78,392.17,107.54,388.16,107.54
					L388.16,107.54z"/>
			</g>
			<path class="st15" d="M125.98,306.81l-34.89,0.07c-1.54,0-2.79-1.24-2.79-2.78l0-0.35c0-1.54,1.24-2.79,2.78-2.79l34.89-0.07
				c1.54,0,2.79,1.24,2.79,2.78l0,0.35C128.76,305.56,127.51,306.81,125.98,306.81z"/>
			<path class="st15" d="M121.78,171.75l-29.7,0.06c-2.82,0.01-5.11-2.28-5.12-5.1l-0.06-29.7c-0.01-2.82,2.28-5.11,5.1-5.12
				l29.7-0.06c2.82-0.01,5.11,2.28,5.12,5.1l0.06,29.7C126.88,169.46,124.6,171.75,121.78,171.75z"/>
			<path class="st0" d="M248.93,260.72l-103.48,0.21c-2.01,0-3.64-1.62-3.65-3.63l0-0.45c0-2.01,1.62-3.64,3.63-3.65l103.48-0.21
				c2.01,0,3.64,1.62,3.65,3.63l0,0.45C252.57,259.09,250.94,260.72,248.93,260.72z"/>
			<path class="st0" d="M242.95,142.82l-81.77,0.17c-2.01,0-3.64-1.62-3.65-3.63l0-0.45c0-2.01,1.62-3.64,3.63-3.65l81.77-0.17
				c2.01,0,3.64,1.62,3.65,3.63l0,0.45C246.59,141.19,244.96,142.82,242.95,142.82z"/>
			<path class="st0" d="M372.22,225.53l-109.03,0.22c-2.01,0-3.64-1.62-3.65-3.63l0-0.45c0-2.01,1.62-3.64,3.63-3.65l109.03-0.22
				c2.01,0,3.64,1.62,3.65,3.63l0,0.45C375.86,223.89,374.23,225.52,372.22,225.53z"/>
			<path class="st0" d="M248.96,276.71l-103.48,0.21c-2.01,0-3.64-1.62-3.65-3.63l0-0.45c0-2.01,1.62-3.64,3.63-3.65l103.48-0.21
				c2.01,0,3.64,1.62,3.65,3.63l0,0.45C252.6,275.07,250.97,276.7,248.96,276.71z"/>
			<path class="st0" d="M249,292.69l-103.48,0.21c-2.01,0-3.64-1.62-3.65-3.63l0-0.45c0-2.01,1.62-3.64,3.63-3.65l103.48-0.21
				c2.01,0,3.64,1.62,3.65,3.63l0,0.45C252.63,291.05,251.01,292.69,249,292.69z"/>
			<path class="st0" d="M370.01,303.11l-104.29,0.22c-3.32,0.01-6.02-2.68-6.02-6l-0.09-44.79c-0.01-3.32,2.68-6.02,6-6.02
				l104.29-0.22c3.32-0.01,6.02,2.68,6.02,6l0.09,44.79C376.01,300.41,373.33,303.11,370.01,303.11z"/>
			<path class="st0" d="M97.39,115.4c0,1.41-1.14,2.55-2.54,2.55c-1.41,0-2.55-1.14-2.55-2.54s1.14-2.55,2.54-2.55
				S97.38,114,97.39,115.4z"/>
			<circle class="st0" cx="105.63" cy="115.39" r="2.55"/>
			<path class="st0" d="M118.97,115.36c0,1.41-1.14,2.55-2.54,2.55s-2.55-1.14-2.55-2.54c0-1.41,1.14-2.55,2.54-2.55
				S118.97,113.95,118.97,115.36z"/>
			
				<ellipse transform="matrix(0.0997 -0.995 0.995 0.0997 -6.8411 270.7578)" class="st0" cx="146.2" cy="139.16" rx="7.37" ry="7.37"/>
			<path class="st15" d="M123.85,177.98l-32.65,0.07c-0.76,0-1.37-0.61-1.38-1.37l0-0.17c0-0.76,0.61-1.37,1.37-1.38l32.65-0.07
				c0.76,0,1.37,0.61,1.38,1.37l0,0.17C125.22,177.36,124.61,177.98,123.85,177.98z"/>
			<path class="st15" d="M123.86,184.22l-32.65,0.07c-0.76,0-1.37-0.61-1.38-1.37l0-0.17c0-0.76,0.61-1.37,1.37-1.38l32.65-0.07
				c0.76,0,1.37,0.61,1.38,1.37l0,0.17C125.24,183.6,124.62,184.21,123.86,184.22z"/>
			<path class="st0" d="M161.25,197.4l-9.23,0.09l0.07,38.68l-7.97,0.02c-2.81,0.01-5.09-2.27-5.1-5.08l-0.15-71.53
				c-0.01-2.84,2.29-5.15,5.13-5.15l17.15-0.04L161.25,197.4z"/>
			<g>
				<path class="st0" d="M221.14,154.27v1c2.76,0,5.01,2.24,5.01,5l0.14,69.74c0,1.34-0.52,2.6-1.46,3.55
					c-0.94,0.95-2.2,1.47-3.54,1.48l-76.27,0.16c-2.76,0-5.01-2.24-5.01-5l-0.14-69.74c0-1.34,0.52-2.6,1.46-3.55
					s2.2-1.47,3.54-1.48l76.26-0.16L221.14,154.27 M221.14,154.27c0,0-0.01,0-0.01,0l-76.26,0.16c-3.32,0.01-6.01,2.7-6,6.02
					l0.14,69.74c0.01,3.32,2.7,6,6.01,6c0,0,0.01,0,0.01,0l76.26-0.16c3.32-0.01,6.01-2.7,6-6.02l-0.14-69.74
					C227.14,156.95,224.45,154.26,221.14,154.27L221.14,154.27z"/>
			</g>
		</g>
		<path class="st0" d="M348.48,211.66l-101.72-22.99c-3.24-0.73-5.27-3.95-4.54-7.19l11.44-50.63c0.73-3.24,3.95-5.27,7.19-4.54
			l101.72,22.99c3.24,0.73,5.27,3.95,4.54,7.19l-11.44,50.63C354.93,210.36,351.72,212.4,348.48,211.66z"/>
		<g>
			<polygon class="st7" points="151.61,349.36 137.38,349.39 133.9,331.26 155.02,331.22 			"/>
			<path class="st0" d="M137.84,331.25c0,1.48-0.28,3.96,0.71,4c0.99,0.04,0.58-2.36,1.7-2.29c0.72,0.04-0.33,7.88,2.38,8.07
				c1.86,0.13,1.52-3.84,1.71-6.33c0.13-1.68,2.28-1.35,2.3-0.24c0.02,1.25-0.06,2.08,0,3.5c0.1,2.37,3.74,1.74,3.61-1.42
				s-0.01-5.3-0.01-5.3L137.84,331.25z"/>
			<g>
				<path class="st16" d="M134.43,342.2c-0.29,0-0.57-0.03-0.84-0.09c-1.05-0.23-1.78-0.78-2.19-1.64c-1.45-3.08,2.37-8.84,2.52-9.1
					l0.2,1.04c-0.03,0.06-3.36,5.01-2.05,7.78c0.31,0.66,0.86,1.07,1.69,1.25c0.23,0.05,0.47,0.07,0.71,0.07
					c5.13-0.01,13.89-9.56,13.99-9.67c0.36-0.43,1.03-0.02,0.79,0.34C148.84,332.64,139.94,342.19,134.43,342.2z"/>
			</g>
		</g>
		<g>
			<path class="st9" d="M284,94.23c-20.23-0.77-48.08,14.19-38.2,50.77c-0.21,3.09,1.64,5.3,3.61,4.7c1.97-0.6,0.23-6.47,0.23-6.47
				c3.37-27.2,9.67-31.9,20.36-31.8l25.09-0.05c6.2,0.91,17.47,5.25,19.16,27.02l6.25,1.15C320.99,123.82,317.18,95.5,284,94.23z"/>
			<path class="st17" d="M284,91.04c-20.23-0.77-48.08,14.19-38.2,50.77l3.84-1.77c3.37-27.2,9.67-31.9,20.36-31.8l25.09-0.05
				c6.2,0.91,17.77,6.42,19.46,28.19l5.95-0.01C320.99,120.63,317.18,92.31,284,91.04z"/>
			<path class="st18" d="M279.86,91.64l-3,6.6c0,0,0.36,3.72,4.01,3.64c3.65-0.08,4.14-1.76,4.14-1.76l0.48-7.58L279.86,91.64z"/>
			<path class="st18" d="M295.3,86.13c-3.42,6.05-4.94,7.94-9.42,8.85c-5.8,1.18-12.3-2.73-9.28-12.37c2.46-7.86,6.2-6.65,9.85-6.35
				C290.11,76.55,299,79.59,295.3,86.13z"/>
			<path class="st16" d="M281.69,81.35c-0.91-0.47-2.08-0.07-2.79,0.67c-0.73,0.77-1.08,1.91-0.77,2.92
				c-1.4,0.02-2.63,1.39-2.5,2.79c-0.96-2.23-0.44-4.56-0.63-6.85c-0.19-2.29,0.06-4.77,1.54-6.52c0.61-0.72,1.39-1.27,2.22-1.71
				c3.15-1.68,7.12-1.73,10.32-0.15c0.66,0.33,2.32,1.37,4.64,0.81c4.42-1.07,7,1.92,4.35,4.72c0.85,0.31,1.79,0.69,2.17,1.51
				c0.1,0.21,0.15,0.47,0.02,0.66c-0.09,0.13-0.25,0.2-0.41,0.25c-0.74,0.25-1.55,0.31-2.32,0.18c0.3,0.25,1.94,0.35,2.43,1.31
				c1.32,2.54-3.9,1.26-4.7,1c0.91,0.17,3.29,2.07,2.53,3.38c-0.15,0.26-3.37,2.13-6.75-1.8c-0.79-0.91-1.77-1.76-2.93-2.07
				c-0.91-0.24-1.87,0.09-2.76,0.43c-0.65,0.24-2.3,1.25-2.77,0.65C282.07,82.89,282.74,81.88,281.69,81.35z"/>
			<path class="st18" d="M315.2,136.37c-0.9,3.09-1.8,3.39-0.72,3.88c1.09,0.49,1.97-1.24,1.97-1.24l5.02,1c0,0-1.13-3.26-1.92-3.65
				C318.75,135.97,315.2,136.37,315.2,136.37z"/>
			<path class="st18" d="M249.64,140.04c0.66,1.63,0.84,1.64,1.75,3.6c1.75,3.74-2.34,9.65-4.88,3.2c-0.7-1.77-0.71-5.02-0.71-5.02
				L249.64,140.04z"/>
		</g>
		<g>
			<g>
				<path class="st16" d="M288.83,73.03c1.93,0.19,3.75-0.49,5.64-0.69c1.64-0.18,3.58,0.07,4.64,1.5c0.25,0.34,0.81,0.04,0.58-0.34
					c-0.92-1.55-2.73-2.07-4.44-1.95c-2.17,0.14-4.23,1.06-6.43,0.92C288.46,72.44,288.47,73,288.83,73.03L288.83,73.03z"/>
				<path class="st16" d="M290.21,71.14c-2.17,0.52-4.34-0.63-6.53-0.39c-2.05,0.22-3.96,1.23-5.48,2.6
					c-0.36,0.33,0.12,0.96,0.53,0.68c1.7-1.16,3.52-2.31,5.64-2.33c2.03-0.02,4.04,0.91,6.04,0.17
					C290.86,71.7,290.69,71.03,290.21,71.14L290.21,71.14z"/>
				<path class="st16" d="M276.87,74.34c-0.81,0.48-1.56,1.07-2.05,1.89c-0.47,0.79-0.69,1.72-0.76,2.63
					c-0.08,1.06,0.07,2.13,0.27,3.18c0.14,0.75,0.19,1.93,1.08,2.18c0.4,0.11,0.58-0.42,0.27-0.64c-0.29-0.2-0.34-0.64-0.41-0.96
					c-0.09-0.42-0.18-0.83-0.25-1.25c-0.15-0.85-0.25-1.72-0.2-2.59c0.11-1.7,0.92-3.06,2.29-4.04
					C277.35,74.57,277.14,74.18,276.87,74.34L276.87,74.34z"/>
				<path class="st16" d="M302.24,79.97c-0.43-0.79-1.14-1.43-1.97-1.78c-0.82-0.36-1.92-0.53-2.72-0.05
					c-0.25,0.15-0.15,0.56,0.15,0.55c0.39,0,0.78-0.04,1.17-0.03c0.38,0.01,0.75,0.1,1.11,0.22c0.73,0.25,1.37,0.71,1.81,1.36
					C301.98,80.51,302.4,80.27,302.24,79.97L302.24,79.97z"/>
			</g>
		</g>
		<g>
			<path class="st14" d="M190.97,232.52c10.61,3.9,19.82,16.06,17.7,24.91c-2.39,9.99-9.28,14.3-9.28,14.3l-2.17-4.01
				c0,0,5.51-8.61,5.03-12.68c-0.77-6.51-8.99-10.87-8.99-10.87L190.97,232.52z"/>
			<path class="st16" d="M164.85,345.24c0,0-6.51,2.63-8.14,4.12l12.9-0.03l-0.01-4.1L164.85,345.24z"/>
			<path class="st16" d="M193.36,344.99c0,0,1.85,2.14,2.19,4.29l-8.8,0.02c0.15-1.48,0.78-2.91,1.64-4.3L193.36,344.99z"/>
			<path class="st19" d="M193.9,345.18l-6.01,0.01c0.12-7.08-1.34-31.21-2.75-49.25c-0.83-10.58-1.65-19.08-2.13-20.8l3.22-0.71
				l12.15-2.7C200.46,281.23,195.66,324.85,193.9,345.18z"/>
			<path class="st20" d="M171.81,274.76c-4.69,7.38-5.9,60.74-7.86,70.63l5.7,0.32c0,0,6.55-33.64,20.49-71.46L171.81,274.76z"/>
			<path class="st9" d="M192.54,274.25c-2.75,7.47-5.22,14.78-7.4,21.69c-0.83-10.58-1.65-19.08-2.13-20.8l3.22-0.71L192.54,274.25z
				"/>
			<path class="st20" d="M171.81,274.76c-4.69,7.38-5.9,60.74-7.86,70.63l5.7,0.32c0,0,6.55-33.64,20.49-71.46L171.81,274.76z"/>
			<path class="st18" d="M175.39,215.19c0,0-3.65,13.9,5.47,13.89l-0.54,3.55l6.92,0.76l-1.5-4.95c0,0,1.37-8.74,1.46-10.32
				C187.38,215.17,179.12,209.98,175.39,215.19z"/>
			<g>
				
					<rect x="150.18" y="199.61" transform="matrix(1 -1.973264e-03 1.973264e-03 1 -0.4048 0.2994)" class="st16" width="2.69" height="11.35"/>
				<path class="st7" d="M159.22,199.59l-15.42,0.03c-1.08,0-1.96-0.87-1.96-1.95l0-0.4c0-1.08,0.87-1.96,1.95-1.96l15.42-0.03
					c1.08,0,1.96,0.87,1.96,1.95l0,0.4C161.17,198.71,160.3,199.59,159.22,199.59z"/>
			</g>
			<path class="st18" d="M149.44,213.92c-0.07-2.57-2.2-1.9-1.03-6.1c0.72-2.6,6.09,0.42,5.42,2.22c-0.67,1.8-1.44,4.65-1.44,4.65
				L149.44,213.92z"/>
			<path class="st7" d="M180.92,231.82c-13.63,0.9-14.53,5.5-20.63,4.78c-9.03-1.06-7.45-17.83-6.33-23.84l-5.39,0.01
				c0,0-9.72,38.19,20.98,31.13c-1.18,6.69,6.46,17.62-0.95,30.88c11.65,3.17,22.53,3.94,31.84-0.06
				c-1.63-2.2,3.34-24.39-6.39-40.36C192.15,231.23,181.92,231.75,180.92,231.82z"/>
			<path class="st7" d="M180.92,231.82c-13.63,0.9-14.53,5.5-20.63,4.78c-9.03-1.06-7.45-17.83-6.33-23.84l-5.39,0.01
				c0,0-9.72,38.19,20.98,31.13c-1.18,6.69,6.46,17.62-0.95,30.88c11.65,3.17,22.53,3.94,31.84-0.06
				c-1.63-2.2,3.34-24.39-6.39-40.36C192.15,231.23,181.92,231.75,180.92,231.82z"/>
			<path class="st17" d="M179.05,217.86c0.89,0.23,1.92,0.4,2.4,1.15c0.31,0.49,0.29,1.1,0.26,1.67c0.16-0.6,0.83-1.03,1.46-0.95
				c0.64,0.07,1.18,0.64,1.19,1.26c0.01,0.29-0.09,0.57-0.2,0.84c-0.27,0.68-0.61,1.32-1.01,1.93c1.11,0.41,2.05,3.67,2.6,4.68
				c1.87-0.47,6.04-2.08,6.4-8.71c0.17-3.09-0.77-6.79-4.12-8.84c-2.37-1.45-6.29-1.47-9-0.78c-2.2,0.56-5.7,2.76-4.07,5.32
				C175.78,216.72,177.58,217.48,179.05,217.86z"/>
			<path class="st17" d="M190.72,213.64c1.27-0.42,2.88-0.2,3.64,0.86c0.59,0.83,0.54,1.91,0.73,2.9c0.09,0.48,0.26,0.96,0.63,1.29
				c0.44,0.39,1.08,0.49,1.68,0.52c1.47,0.08,2.95-0.11,4.4,0.14c1.45,0.25,2.93,1.06,3.34,2.41c0.23,0.75,0.1,1.57,0.38,2.3
				c0.41,1.1,1.58,1.73,2.6,2.37c2.17,1.36,4.02,3.2,5.35,5.33c0.85,1.35,1.5,2.85,1.6,4.42c0.1,1.57,1.24,3.65,0.93,5.19
				c-0.33,1.67-1.97,3.93-5.21,4.97c-5.6,1.8-7.38,2.58-12.75-0.61c-0.65-0.39-1.91-1.69-2.5-2.16c-0.46-0.37-0.75-0.9-0.91-1.45
				c-0.45-1.54,0.07-3.2,0.87-4.6c0.8-1.4,1.89-2.64,2.71-4.03c0.49-0.84,0.89-1.77,0.85-2.73c-0.02-0.36-0.11-0.73-0.37-0.99
				c-0.23-0.22-0.55-0.33-0.87-0.39c-1.18-0.23-2.48,0.01-3.54-0.52c-1.04-0.51-1.61-1.77-1.29-2.85c0.21-0.72,0.76-1.33,0.91-2.06
				c0.22-1.06-0.44-2.14-1.36-2.76c-0.92-0.62-2.05-0.86-3.16-1.04c-0.55-0.09-1.12-0.18-1.56-0.5c-0.55-0.39-0.8-1.08-0.79-1.73
				C187.07,215.84,188.76,214.29,190.72,213.64z"/>
		</g>
		<g>
			<g>
				<path class="st17" d="M189.76,219.23c1.89,0.23,3.1,2.14,2.57,3.95c-0.49,1.64-1.74,2.99-1.78,4.77
					c-0.03,1.48,0.98,2.53,2.38,2.83c0.73,0.16,1.46,0.12,2.2,0.1c0.74-0.01,1.62-0.03,2.23,0.47c0.81,0.68,0.59,1.88,0.26,2.75
					c-0.38,1-0.91,1.87-0.96,2.97c-0.02,0.36,0.59,0.46,0.64,0.09c0.27-1.75,1.73-3.33,1.26-5.18c-0.43-1.7-2.23-1.84-3.7-1.79
					c-0.86,0.03-1.77,0.05-2.56-0.36c-0.96-0.5-1.21-1.53-1.01-2.54c0.37-1.83,1.95-3.33,1.73-5.3c-0.19-1.67-1.62-3-3.28-3.12
					C189.53,218.86,189.54,219.2,189.76,219.23L189.76,219.23z"/>
			</g>
		</g>
		<g>
			<g>
				<path class="st17" d="M175.82,210.97c2.47-1.28,5.11-2.07,7.92-1.67c2.6,0.37,4.95,1.66,6.86,3.43c0.3,0.27,0.69-0.14,0.44-0.44
					c-3.64-4.3-10.98-5.23-15.38-1.54C175.52,210.86,175.69,211.04,175.82,210.97L175.82,210.97z"/>
			</g>
		</g>
		<g>
			<polygon class="st18" points="350.48,227.28 348.23,231.82 353.74,234.07 354.32,228.85 			"/>
			<path class="st18" d="M353.81,212.53c-12.49,5.44-7.37,18.62,0.23,17.07c3.7-0.75,5.57-12.67,5.57-12.67L353.81,212.53z"/>
			<path class="st11" d="M357.96,210.66c-0.41-0.76-0.8-1.58-1.48-2.12c-0.68-0.54-1.75-0.72-2.38-0.13
				c-0.84,0.78-0.35,2.24,0.5,3.01c-0.73,0.09-1.6-0.42-2.14,0.09c-0.41,0.38-0.27,1.06-0.03,1.57c0.55,1.19,1.45,2.23,2.56,2.93
				c-0.63,0.36-1.37,1.06-0.99,1.68c0.11,0.17,0.28,0.29,0.39,0.46c0.24,0.4,0.01,0.92-0.24,1.32c-0.39,0.65-0.82,1.28-1.27,1.89
				c0.43-0.59,1.48-0.35,1.79,0.31c0.31,0.66,0.04,1.47-0.44,2.01c-0.27,0.3-0.61,0.55-1.01,0.64c-0.34,0.08-1.86,4.76-0.68,5.68
				c1.46,1.13,6.42,0.15,7.14-1.13c0.72,0.78,1.77,1.37,2.81,1.16c1.04-0.21,1.83-1.49,1.27-2.39c1.12,0.41,2.49,0.05,3.26-0.87
				c0.77-0.92,0.88-2.33,0.27-3.36c0.61-0.18,0.74-1.01,0.58-1.63c-0.32-1.25-1.34-2.31-2.58-2.66c0.63,0.01,1.13-0.63,1.16-1.26
				c0.03-0.63-0.3-1.23-0.7-1.72c-1.17-1.45-2.56-1.83-4.29-2.05C359.7,213.88,358.73,212.1,357.96,210.66z"/>
			<path class="st16" d="M346.25,344.38c0,0-7.31,3.51-8.29,4.6c0,0,14.38,0.65,15.51-0.03c1.13-0.68-2.3-4.58-2.3-4.58
				L346.25,344.38z"/>
			<path class="st16" d="M373.44,340.41c0,0-6.42,4.95-7.16,6.22c0,0,15.16-2.25,15.16-3.24c0-0.99-3.2-4.01-3.2-4.01L373.44,340.41
				z"/>
			<path class="st21" d="M353.32,276.61c-0.27,1.49-10.28,40.99,18.35,64.68l8.29-1.9c0,0-9.65-9.05-14.2-25.35
				c-4.3-15.41-0.89-16.92,1.69-25.4c2.86-9.39,0.73-16.21,0.73-16.21L353.32,276.61z"/>
			<path class="st17" d="M339.63,276.49c-4.54,10.85-12.33,47.82,4.65,68.63l8.48-0.02c0,0-6.68-7.32-7.43-24.31
				c-0.75-16.99,3.57-24.45,6.62-30.05c3.05-5.61,5.87-15.13,5.87-15.13L339.63,276.49z"/>
			<path class="st14" d="M333.65,209.24c-2.25,7.94-2.99,22.62,8.29,28.53l7.55-1.84c0,0-13.62-7.14-10.7-25.18L333.65,209.24z"/>
			<path class="st7" d="M312.84,205.18l5.86-0.72c0,0-0.71,24.62,27.73,26.7c21.71,1.58,23.41,42.32,23.41,42.32
				c-7,4.71-18.74,6.14-33.79,5.06c0,0,0.96-29.06-1.43-37.02C334.62,241.51,311,234.08,312.84,205.18z"/>
			<path class="st18" d="M305.67,200.71c-0.99,1.15,3.15,2.61,7.17,4.47l5.15-0.63c0,0,0.06-1.03,0-2.1
				c-0.06-1.07-0.6-1.68-1.21-0.76c-0.61,0.92-3.21,1.23-4.44,0.39C311.1,201.23,306.66,199.56,305.67,200.71z"/>
			<path class="st18" d="M333.65,209.24c-1.89-1.85-1.38-1.74-1.38-1.74l5.75,1.3c0,0,1.26-2.81,2.34-2.88
				c1.07-0.08-0.81,1.93-0.38,2.68c0.43,0.75-1.18,2.16-1.18,2.16L333.65,209.24z"/>
		</g>
		<g>
			<g>
				<path class="st11" d="M361.19,213.37c0.66,0.18,1.35,0.26,2.01,0.48c0.63,0.21,1.21,0.54,1.67,1.02c0.75,0.78,1.03,2.08,0.39,3
					c-0.3,0.43,0.39,0.97,0.73,0.56c1.04-1.23,0.71-2.99-0.31-4.13c-0.53-0.59-1.28-0.97-2.03-1.21c-0.78-0.24-1.65-0.37-2.46-0.25
					C360.91,212.89,360.95,213.3,361.19,213.37L361.19,213.37z"/>
			</g>
		</g>
		<g>
			<g>
				<path class="st11" d="M366.39,224.04c0.74,0.41,1.39,1.15,1.14,2.05c-0.27,0.96-1.22,1.52-1.98,2.05
					c-0.35,0.25-0.05,0.78,0.34,0.58c1.05-0.55,2.16-1.32,2.38-2.58c0.2-1.17-0.56-2.13-1.56-2.64
					C366.35,223.32,366.03,223.84,366.39,224.04L366.39,224.04z"/>
			</g>
		</g>
		<g>
			<g>
				<path class="st11" d="M353.25,230c1.3,0.86,2.89,1.2,4.44,1.02c1.49-0.17,3.17-0.76,4.15-1.96c0.24-0.29-0.08-0.83-0.44-0.57
					c-1.16,0.83-2.32,1.52-3.76,1.73c-1.41,0.21-2.88,0-4.18-0.6C353.22,229.51,353.02,229.84,353.25,230L353.25,230z"/>
			</g>
		</g>
		<g>
			<g>
				<path class="st11" d="M366.73,215.11c0.64,0.54,0.74,1.44,0.54,2.2c-0.12,0.44-0.36,0.85-0.61,1.23
					c-0.28,0.43-0.59,0.84-0.91,1.24c-0.22,0.27,0.12,0.64,0.39,0.39c0.85-0.79,1.68-1.64,1.84-2.85c0.13-0.92-0.24-1.98-1.12-2.39
					C366.76,214.88,366.63,215.02,366.73,215.11L366.73,215.11z"/>
			</g>
		</g>
	</g>
	<g>
		<polygon class="st14" points="197.58,32.43 195.23,26.7 217.86,18.1 		"/>
		<polygon class="st3" points="198.72,28.9 217.86,18.1 204.53,31.64 		"/>
		<polygon class="st3" points="190.05,24.36 217.86,18.1 195.23,26.7 		"/>
		<polygon class="st7" points="198.72,28.9 197.58,32.43 201.03,29.99 		"/>
	</g>
	<path class="st13" d="M194.92,31.66c-5.91-1-13.93,4.98-10.48,11.2c1.17,2.12,7.23,1.2,6.78-1.14c-0.22-1.12-1.59-1.6-2.72-1.47
		c-6.6,0.76-6.87,6.29-6.57,7.7c1.51,7.28,12.67,4.82,16.42,3.79"/>
</g>
</svg>
